<?xml version="1.0" encoding="UTF-8"?>
<svg version="1.1" xmlns="http://www.w3.org/2000/svg" width="486" height="486">
<path d="M0 0 C160.38 0 320.76 0 486 0 C486 160.38 486 320.76 486 486 C325.62 486 165.24 486 0 486 C0 325.62 0 165.24 0 0 Z " fill="#343439" transform="translate(0,0)"/>
<path d="M0 0 C106.26 0 212.52 0 322 0 C322.33 1.98 322.66 3.96 323 6 C323.53449669 7.43580483 324.11914543 8.85384645 324.75 10.25 C326.80646541 15.19458962 328.31065233 20.22505934 329.75 25.375 C329.97268555 26.16036133 330.19537109 26.94572266 330.42480469 27.75488281 C330.63008789 28.50350586 330.83537109 29.25212891 331.046875 30.0234375 C331.32289551 31.02769775 331.32289551 31.02769775 331.60449219 32.05224609 C332 34 332 34 332 38 C331.01 37.67 330.02 37.34 329 37 C329.33 37.66 329.66 38.32 330 39 C330.99 39 331.98 39 333 39 C333.12117188 39.61488281 333.24234375 40.22976562 333.3671875 40.86328125 C333.53476562 41.67152344 333.70234375 42.47976562 333.875 43.3125 C334.03742188 44.11300781 334.19984375 44.91351563 334.3671875 45.73828125 C334.94478999 48.25301118 334.94478999 48.25301118 337 51 C336.34 51 335.68 51 335 51 C335.33 52.32 335.66 53.64 336 55 C336.99 55 337.98 55 339 55 C339.33 55.99 339.66 56.98 340 58 C339.01 58 338.02 58 337 58 C336.67 65.59 336.34 73.18 336 81 C335.01 81 334.02 81 333 81 C333 82.65 333 84.3 333 86 C333.99 86.33 334.98 86.66 336 87 C337 90 337 90 336.125 92.5 C332.75823633 102.97437585 334.50236138 110.12360642 339 120 C341.12104399 124.78618188 342.79883133 129.51231197 344.15625 134.5703125 C344.92319688 137.05998131 344.92319688 137.05998131 346.4140625 139.30078125 C348.4385065 142.74632511 349.61136474 146.28467795 350.875 150.0625 C353.31308111 157.17446721 355.99714109 164.10405409 359 171 C361.97 170.67 364.94 170.34 368 170 C363.69230769 174.92307692 363.69230769 174.92307692 360.1875 175.3125 C359.1046875 175.1578125 359.1046875 175.1578125 358 175 C357.01 172.69 356.02 170.38 355 168 C354.34 168.66 353.68 169.32 353 170 C353.66 170 354.32 170 355 170 C355 170.99 355 171.98 355 173 C355.66 173 356.32 173 357 173 C357 173.99 357 174.98 357 176 C355.35 176.33 353.7 176.66 352 177 C351.67 178.32 351.34 179.64 351 181 C354.3 181.66 357.6 182.32 361 183 C361 183.66 361 184.32 361 185 C361.99 185.33 362.98 185.66 364 186 C365.05566406 187.81567383 365.05566406 187.81567383 366.015625 190.20703125 C366.37599854 191.09342285 366.73637207 191.97981445 367.10766602 192.89306641 C367.48463623 193.85647949 367.86160645 194.81989258 368.25 195.8125 C368.64695068 196.80427246 369.04390137 197.79604492 369.45288086 198.81787109 C372.30022857 206.00918327 374.90542362 213.26928012 377.40307617 220.58813477 C379.74483241 227.40818759 382.37204023 234.08899238 385.08569336 240.76855469 C387.1855654 245.94139776 389.19678703 251.13588867 391.125 256.375 C392.97826693 261.40556438 394.97448058 266.33606312 397.125 271.25 C399.43812575 276.54839013 401.39789948 281.86791898 403.140625 287.37890625 C403.97503582 290.02893045 403.97503582 290.02893045 405.0859375 292.65625 C406.27194082 295.69728415 406.39737066 297.75480624 406 301 C404.29565847 304.28243554 402.8703952 306.40315758 399.8125 308.5 C395.67469771 309.2356093 391.91283935 308.50211998 388 307 C386.00080906 305.27623204 384.57873963 303.46385043 382.9375 301.375 C381.22133095 298.93968019 381.22133095 298.93968019 379 298 C379 297.34 379 296.68 379 296 C378.34 296 377.68 296 377 296 C374.375 293.625 374.375 293.625 372 291 C372 290.34 372 289.68 372 289 C371.26007813 288.73574219 370.52015625 288.47148437 369.7578125 288.19921875 C367.01439007 287.00625744 365.16496056 285.71499575 362.875 283.8125 C349.78852724 273.42913473 334.20881588 265.25647686 318 261 C317.34306152 260.81953125 316.68612305 260.6390625 316.00927734 260.453125 C303.80089724 257.22301952 291.74328732 256.60182379 279.1875 256.5625 C278.08847855 256.55337585 278.08847855 256.55337585 276.96725464 256.54406738 C263.47830362 256.4708143 250.62885297 258.22143053 237.75 262.375 C236.7741394 262.68763794 236.7741394 262.68763794 235.77856445 263.0065918 C230.50935334 264.73417026 225.41601221 266.81351177 220.35546875 269.08203125 C218 270 218 270 215 270 C214.67 271.65 214.34 273.3 214 275 C213.01 274.67 212.02 274.34 211 274 C206.50934742 277.09356067 203.66853948 280.66668621 200.51953125 285.0703125 C198.33040287 287.85033672 195.7690414 289.81052541 193 292 C192.67 292.66 192.34 293.32 192 294 C191.34 294 190.68 294 190 294 C189.9175 294.61875 189.835 295.2375 189.75 295.875 C189 298 189 298 186.9375 299.25 C186.298125 299.4975 185.65875 299.745 185 300 C185 298.35 185 296.7 185 295 C179.31055805 298.27142912 174.85755254 302.68362683 171 308 C171 308.99 171 309.98 171 311 C174.06049937 311.34613723 174.06049937 311.34613723 175.82421875 309.25 C176.43910156 308.5075 177.05398437 307.765 177.6875 307 C178.31011719 306.2575 178.93273437 305.515 179.57421875 304.75 C180.04472656 304.1725 180.51523438 303.595 181 303 C181.33 303.99 181.66 304.98 182 306 C181.34 306 180.68 306 180 306 C179.62875 306.804375 179.62875 306.804375 179.25 307.625 C177.04513186 311.81424947 174.68457179 315.34654511 171.25 318.625 C168.54150357 320.93870794 168.54150357 320.93870794 169 325 C168.34 325.99 167.68 326.98 167 328 C166.34 327.67 165.68 327.34 165 327 C163.60025687 328.39974313 162.49590675 329.97530617 161.3125 331.5625 C160.78011719 332.27535156 160.24773437 332.98820312 159.69921875 333.72265625 C159.13847656 334.47417969 158.57773438 335.22570312 158 336 C156.87540622 337.50030458 155.75042767 339.00032085 154.625 340.5 C154.12226563 341.1703125 153.61953125 341.840625 153.1015625 342.53125 C152.73804688 343.0159375 152.37453125 343.500625 152 344 C152 342.66666667 152 341.33333333 152 340 C151.01 340 150.02 340 149 340 C149.30679688 339.43796875 149.61359375 338.8759375 149.9296875 338.296875 C151.02957585 335.93653066 151.60095851 333.79534438 152.125 331.25 C152.37636719 330.05117188 152.37636719 330.05117188 152.6328125 328.828125 C152.75398437 328.22484375 152.87515625 327.6215625 153 327 C153.66 327 154.32 327 155 327 C155.33 326.34 155.66 325.68 156 325 C156.474375 324.5875 156.94875 324.175 157.4375 323.75 C159.54219705 321.39273931 160.12230123 319.00925292 161 316 C161.33 315.01 161.66 314.02 162 313 C161.34 313 160.68 313 160 313 C160 312.34 160 311.68 160 311 C161.32 311 162.64 311 164 311 C164.33 310.01 164.66 309.02 165 308 C161.52413608 309.25082992 158.95378293 310.63700061 156.125 313 C135.88393765 329.12593728 112.4663074 341.19427043 87.96508789 349.31811523 C85.86502615 350.04683587 83.80861336 350.86087905 81.7421875 351.6796875 C77.55406116 353.15733541 75.26551546 353.08728825 71 352 C70.01 351.34 69.02 350.68 68 350 C68 349.34 68 348.68 68 348 C67.34 348 66.68 348 66 348 C64.55058051 343.65174153 64.01500486 340.10533312 66.0234375 335.8125 C67.60704262 333.15274333 69.28368643 330.57623975 71 328 C72.41999475 325.81456046 73.83738841 323.62769595 75.25 321.4375 C75.63172363 320.84630371 76.01344727 320.25510742 76.40673828 319.64599609 C91.00218975 296.93058235 104.43791924 272.68624227 113 247 C111.205625 246.814375 111.205625 246.814375 109.375 246.625 C105.71897867 246.17772079 102.47494107 245.24105038 99 244 C98.34 244 97.68 244 97 244 C97 243.34 97 242.68 97 242 C96.030625 241.9175 95.06125 241.835 94.0625 241.75 C89.32880899 241.1000875 85.26015593 239.07694677 81 237 C80.34 237.66 79.68 238.32 79 239 C78.34 238.67 77.68 238.34 77 238 C77.33 237.34 77.66 236.68 78 236 C76.30431257 234.30431257 74.07342754 233.49194524 71.9375 232.4375 C71.01839844 231.98246094 70.09929687 231.52742187 69.15234375 231.05859375 C68.44207031 230.70925781 67.73179688 230.35992187 67 230 C66.34 230.66 65.68 231.32 65 232 C63.68 231.01 62.36 230.02 61 229 C61.66 228.34 62.32 227.68 63 227 C59.33708062 224.52214277 56.3890815 223.51035831 52 223 C52.66 222.67 53.32 222.34 54 222 C54 221.34 54 220.68 54 220 C53.195625 219.62875 53.195625 219.62875 52.375 219.25 C49.4176018 217.69347463 46.70275949 215.96564327 44 214 C44 213.34 44 212.68 44 212 C42.68 211.67 41.36 211.34 40 211 C40 210.34 40 209.68 40 209 C39.443125 208.773125 38.88625 208.54625 38.3125 208.3125 C35.33840412 206.62449964 33.27991135 204.53323483 31 202 C31 201.34 31 200.68 31 200 C29.68 199.34 28.36 198.68 27 198 C27 197.34 27 196.68 27 196 C26.360625 195.731875 25.72125 195.46375 25.0625 195.1875 C23 194 23 194 22 191 C20.35 190.67 18.7 190.34 17 190 C16.6596875 188.6696875 16.6596875 188.6696875 16.3125 187.3125 C14.8157585 183.53500954 12.88073072 181.80871245 10 179 C9.32033324 177.33859237 8.65061095 175.67299959 8 174 C7.01 173.67 6.02 173.34 5 173 C4.2863409 170.68060793 3.6252708 168.34476551 3 166 C1.515 163.525 1.515 163.525 0 161 C0 107.87 0 54.74 0 0 Z M29 203 C29.99 203.33 30.98 203.66 32 204 C31.67 204.99 31.34 205.98 31 207 C30.01 206.67 29.02 206.34 28 206 C28.33 205.01 28.66 204.02 29 203 Z " fill="#3A393E" transform="translate(0,0)"/>
<path d="M0 0 C0.92688126 -0.00014603 1.85376251 -0.00029205 2.80873108 -0.0004425 C5.8821138 0.00025593 8.95543642 0.00804512 12.02880859 0.01586914 C14.15587328 0.01773357 16.28293839 0.01915735 18.41000366 0.02015686 C24.01600321 0.02398011 29.62197697 0.03380877 35.22796631 0.04486084 C40.94543102 0.05507909 46.66289989 0.05965537 52.38037109 0.06469727 C63.60434078 0.07543119 74.82829129 0.09250532 86.05224609 0.11352539 C86.20081055 1.059375 86.349375 2.00522461 86.50244141 2.97973633 C86.99178542 5.76891031 87.64769321 7.80836737 88.80224609 10.36352539 C90.8587115 15.30811501 92.36289842 20.33858473 93.80224609 25.48852539 C94.02493164 26.27388672 94.24761719 27.05924805 94.47705078 27.8684082 C94.68233398 28.61703125 94.88761719 29.3656543 95.09912109 30.13696289 C95.3751416 31.14122314 95.3751416 31.14122314 95.65673828 32.16577148 C96.05224609 34.11352539 96.05224609 34.11352539 96.05224609 38.11352539 C95.06224609 37.78352539 94.07224609 37.45352539 93.05224609 37.11352539 C93.38224609 37.77352539 93.71224609 38.43352539 94.05224609 39.11352539 C95.04224609 39.11352539 96.03224609 39.11352539 97.05224609 39.11352539 C97.17341797 39.7284082 97.29458984 40.34329102 97.41943359 40.97680664 C97.58701172 41.78504883 97.75458984 42.59329102 97.92724609 43.42602539 C98.08966797 44.2265332 98.25208984 45.02704102 98.41943359 45.85180664 C98.99703609 48.36653657 98.99703609 48.36653657 101.05224609 51.11352539 C100.39224609 51.11352539 99.73224609 51.11352539 99.05224609 51.11352539 C99.38224609 52.43352539 99.71224609 53.75352539 100.05224609 55.11352539 C101.04224609 55.11352539 102.03224609 55.11352539 103.05224609 55.11352539 C103.38224609 56.10352539 103.71224609 57.09352539 104.05224609 58.11352539 C103.06224609 58.11352539 102.07224609 58.11352539 101.05224609 58.11352539 C100.72224609 65.70352539 100.39224609 73.29352539 100.05224609 81.11352539 C99.06224609 81.11352539 98.07224609 81.11352539 97.05224609 81.11352539 C97.05224609 82.76352539 97.05224609 84.41352539 97.05224609 86.11352539 C98.04224609 86.44352539 99.03224609 86.77352539 100.05224609 87.11352539 C101.05224609 90.11352539 101.05224609 90.11352539 100.17724609 92.61352539 C96.81048243 103.08790124 98.55460747 110.23713181 103.05224609 120.11352539 C105.17329009 124.89970727 106.85107742 129.62583736 108.20849609 134.68383789 C108.97544298 137.17350671 108.97544298 137.17350671 110.46630859 139.41430664 C112.4907526 142.8598505 113.66361083 146.39820334 114.92724609 150.17602539 C117.36532721 157.2879926 120.04938718 164.21757949 123.05224609 171.11352539 C126.02224609 170.78352539 128.99224609 170.45352539 132.05224609 170.11352539 C127.74455379 175.03660231 127.74455379 175.03660231 124.23974609 175.42602539 C123.15693359 175.27133789 123.15693359 175.27133789 122.05224609 175.11352539 C121.06224609 172.80352539 120.07224609 170.49352539 119.05224609 168.11352539 C118.39224609 168.77352539 117.73224609 169.43352539 117.05224609 170.11352539 C117.71224609 170.11352539 118.37224609 170.11352539 119.05224609 170.11352539 C119.05224609 171.10352539 119.05224609 172.09352539 119.05224609 173.11352539 C119.71224609 173.11352539 120.37224609 173.11352539 121.05224609 173.11352539 C121.05224609 174.10352539 121.05224609 175.09352539 121.05224609 176.11352539 C119.40224609 176.44352539 117.75224609 176.77352539 116.05224609 177.11352539 C115.72224609 178.43352539 115.39224609 179.75352539 115.05224609 181.11352539 C118.35224609 181.77352539 121.65224609 182.43352539 125.05224609 183.11352539 C125.05224609 183.77352539 125.05224609 184.43352539 125.05224609 185.11352539 C126.04224609 185.44352539 127.03224609 185.77352539 128.05224609 186.11352539 C129.10791016 187.92919922 129.10791016 187.92919922 130.06787109 190.32055664 C130.42824463 191.20694824 130.78861816 192.09333984 131.15991211 193.0065918 C131.53688232 193.97000488 131.91385254 194.93341797 132.30224609 195.92602539 C132.69919678 196.91779785 133.09614746 197.90957031 133.50512695 198.93139648 C136.35247466 206.12270866 138.95766972 213.38280551 141.45532227 220.70166016 C143.7970785 227.52171298 146.42428633 234.20251777 149.13793945 240.88208008 C151.2378115 246.05492315 153.24903312 251.24941406 155.17724609 256.48852539 C157.03051303 261.51908977 159.02672667 266.44958851 161.17724609 271.36352539 C163.49037184 276.66191552 165.45014558 281.98144437 167.19287109 287.49243164 C168.02728191 290.14245584 168.02728191 290.14245584 169.13818359 292.76977539 C170.32418691 295.81080954 170.44961676 297.86833163 170.05224609 301.11352539 C168.34790456 304.39596093 166.92264129 306.51668297 163.86474609 308.61352539 C159.72694381 309.34913469 155.96508545 308.61564537 152.05224609 307.11352539 C150.05305516 305.38975743 148.63098572 303.57737582 146.98974609 301.48852539 C145.27357704 299.05320558 145.27357704 299.05320558 143.05224609 298.11352539 C143.05224609 297.45352539 143.05224609 296.79352539 143.05224609 296.11352539 C142.39224609 296.11352539 141.73224609 296.11352539 141.05224609 296.11352539 C138.42724609 293.73852539 138.42724609 293.73852539 136.05224609 291.11352539 C136.05224609 290.45352539 136.05224609 289.79352539 136.05224609 289.11352539 C135.31232422 288.84926758 134.57240234 288.58500977 133.81005859 288.31274414 C131.06663616 287.11978283 129.21720665 285.82852114 126.92724609 283.92602539 C113.84077334 273.54266012 98.26106198 265.37000225 82.05224609 261.11352539 C81.06683838 260.84282227 81.06683838 260.84282227 80.06152344 260.56665039 C67.85314333 257.33654491 55.79553341 256.71534918 43.23974609 256.67602539 C42.14072464 256.66690125 42.14072464 256.66690125 41.01950073 256.65759277 C27.53054972 256.58433969 14.68109907 258.33495593 1.80224609 262.48852539 C0.8263855 262.80116333 0.8263855 262.80116333 -0.16918945 263.12011719 C-5.43840057 264.84769565 -10.5317417 266.92703716 -15.59228516 269.19555664 C-17.94775391 270.11352539 -17.94775391 270.11352539 -20.94775391 270.11352539 C-21.27775391 271.76352539 -21.60775391 273.41352539 -21.94775391 275.11352539 C-22.93775391 274.78352539 -23.92775391 274.45352539 -24.94775391 274.11352539 C-29.43840649 277.20708606 -32.27921443 280.78021161 -35.42822266 285.18383789 C-37.61735104 287.96386211 -40.17871251 289.9240508 -42.94775391 292.11352539 C-43.27775391 292.77352539 -43.60775391 293.43352539 -43.94775391 294.11352539 C-44.60775391 294.11352539 -45.26775391 294.11352539 -45.94775391 294.11352539 C-46.03025391 294.73227539 -46.11275391 295.35102539 -46.19775391 295.98852539 C-46.94775391 298.11352539 -46.94775391 298.11352539 -49.01025391 299.36352539 C-49.64962891 299.61102539 -50.28900391 299.85852539 -50.94775391 300.11352539 C-50.94775391 298.46352539 -50.94775391 296.81352539 -50.94775391 295.11352539 C-56.63719585 298.38495451 -61.09020136 302.79715222 -64.94775391 308.11352539 C-64.94775391 309.10352539 -64.94775391 310.09352539 -64.94775391 311.11352539 C-61.88725454 311.45966262 -61.88725454 311.45966262 -60.12353516 309.36352539 C-59.50865234 308.62102539 -58.89376953 307.87852539 -58.26025391 307.11352539 C-57.63763672 306.37102539 -57.01501953 305.62852539 -56.37353516 304.86352539 C-55.66777344 303.99727539 -55.66777344 303.99727539 -54.94775391 303.11352539 C-54.45275391 304.59852539 -54.45275391 304.59852539 -53.94775391 306.11352539 C-54.60775391 306.11352539 -55.26775391 306.11352539 -55.94775391 306.11352539 C-56.31900391 306.91790039 -56.31900391 306.91790039 -56.69775391 307.73852539 C-58.90262205 311.92777486 -61.26318212 315.4600705 -64.69775391 318.73852539 C-67.40625034 321.05223333 -67.40625034 321.05223333 -66.94775391 325.11352539 C-67.60775391 326.10352539 -68.26775391 327.09352539 -68.94775391 328.11352539 C-69.60775391 327.78352539 -70.26775391 327.45352539 -70.94775391 327.11352539 C-72.34749703 328.51326852 -73.45184716 330.08883156 -74.63525391 331.67602539 C-75.16763672 332.38887695 -75.70001953 333.10172852 -76.24853516 333.83618164 C-76.80927734 334.58770508 -77.37001953 335.33922852 -77.94775391 336.11352539 C-79.07234769 337.61382997 -80.19732624 339.11384624 -81.32275391 340.61352539 C-81.82548828 341.28383789 -82.32822266 341.95415039 -82.84619141 342.64477539 C-83.39146484 343.37180664 -83.39146484 343.37180664 -83.94775391 344.11352539 C-83.94775391 342.78019206 -83.94775391 341.44685872 -83.94775391 340.11352539 C-84.93775391 340.11352539 -85.92775391 340.11352539 -86.94775391 340.11352539 C-86.64095703 339.55149414 -86.33416016 338.98946289 -86.01806641 338.41040039 C-84.91817806 336.05005605 -84.3467954 333.90886977 -83.82275391 331.36352539 C-83.65517578 330.56430664 -83.48759766 329.76508789 -83.31494141 328.94165039 C-83.19376953 328.33836914 -83.07259766 327.73508789 -82.94775391 327.11352539 C-82.28775391 327.11352539 -81.62775391 327.11352539 -80.94775391 327.11352539 C-80.61775391 326.45352539 -80.28775391 325.79352539 -79.94775391 325.11352539 C-79.47337891 324.70102539 -78.99900391 324.28852539 -78.51025391 323.86352539 C-76.40555686 321.5062647 -75.82545267 319.12277831 -74.94775391 316.11352539 C-74.61775391 315.12352539 -74.28775391 314.13352539 -73.94775391 313.11352539 C-74.60775391 313.11352539 -75.26775391 313.11352539 -75.94775391 313.11352539 C-75.94775391 312.45352539 -75.94775391 311.79352539 -75.94775391 311.11352539 C-74.62775391 311.11352539 -73.30775391 311.11352539 -71.94775391 311.11352539 C-71.61775391 310.12352539 -71.28775391 309.13352539 -70.94775391 308.11352539 C-74.42361782 309.36435531 -76.99397098 310.750526 -79.82275391 313.11352539 C-100.06381625 329.23946267 -123.48144651 341.30779582 -147.98266602 349.43164062 C-150.08272775 350.16036127 -152.13914055 350.97440444 -154.20556641 351.79321289 C-158.39369274 353.27086081 -160.68223845 353.20081364 -164.94775391 352.11352539 C-165.93775391 351.45352539 -166.92775391 350.79352539 -167.94775391 350.11352539 C-167.94775391 349.45352539 -167.94775391 348.79352539 -167.94775391 348.11352539 C-168.60775391 348.11352539 -169.26775391 348.11352539 -169.94775391 348.11352539 C-171.3971734 343.76526692 -171.93274905 340.21885851 -169.92431641 335.92602539 C-168.34071128 333.26626872 -166.66406747 330.68976514 -164.94775391 328.11352539 C-163.52775915 325.92808585 -162.1103655 323.74122134 -160.69775391 321.55102539 C-160.31603027 320.9598291 -159.93430664 320.36863281 -159.54101562 319.75952148 C-144.94556415 297.04410774 -131.50983466 272.79976766 -122.94775391 247.11352539 C-123.93775391 246.78352539 -124.92775391 246.45352539 -125.94775391 246.11352539 C-125.32376709 246.02989746 -124.69978027 245.94626953 -124.05688477 245.86010742 C-121.82548522 245.32333728 -121.82548522 245.32333728 -120.93041992 243.40209961 C-120.6899292 242.66491699 -120.44943848 241.92773438 -120.20166016 241.16821289 C-119.92443115 240.34675781 -119.64720215 239.52530273 -119.36157227 238.67895508 C-119.08063721 237.79111328 -118.79970215 236.90327148 -118.51025391 235.98852539 C-118.20804932 235.07490234 -117.90584473 234.1612793 -117.59448242 233.2199707 C-116.98365215 231.37046286 -116.37901788 229.51889655 -115.78076172 227.6652832 C-115.08310513 225.52814762 -114.35595497 223.40879126 -113.59619141 221.29321289 C-108.08390864 205.68100558 -104.33476527 189.35662051 -101.32836914 173.08911133 C-100.2520148 167.56279173 -98.55593471 162.63208709 -93.94775391 159.11352539 C-91.86181641 158.71508789 -91.86181641 158.71508789 -89.57275391 158.73852539 C-88.82251953 158.73079102 -88.07228516 158.72305664 -87.29931641 158.71508789 C-84.14649971 159.24928607 -82.45515008 160.10272391 -79.94775391 162.11352539 C-78.69515277 164.57254882 -77.72559609 166.78613792 -76.82275391 169.36352539 C-76.34183177 170.66071536 -75.86006373 171.95759203 -75.37744141 173.25415039 C-75.14154297 173.90577148 -74.90564453 174.55739258 -74.66259766 175.22875977 C-74.01260343 176.94254236 -73.26245044 178.61748866 -72.50244141 180.28540039 C-70.14789749 185.68852315 -68.79068608 191.45266949 -67.19775391 197.11352539 C-63.30493661 210.58644253 -58.58663446 222.30798272 -50.94775391 234.11352539 C-50.94775391 234.77352539 -50.94775391 235.43352539 -50.94775391 236.11352539 C-50.36509766 236.39969727 -49.78244141 236.68586914 -49.18212891 236.98071289 C-47.81630776 237.67317466 -46.46650014 238.40018524 -45.15087891 239.18383789 C-40.11646042 241.90242387 -35.42707847 242.51341946 -29.76025391 242.55102539 C-29.08317383 242.56085449 -28.40609375 242.57068359 -27.70849609 242.58081055 C-21.68520004 242.47889602 -17.85161719 240.38276758 -12.94775391 237.11352539 C-13.60775391 236.78352539 -14.26775391 236.45352539 -14.94775391 236.11352539 C-14.50906982 235.20642822 -14.50906982 235.20642822 -14.06152344 234.28100586 C-12.72819981 231.5186301 -11.40043655 228.75361652 -10.07275391 225.98852539 C-9.61255859 225.03719727 -9.15236328 224.08586914 -8.67822266 223.10571289 C-4.09512632 215.06627762 -4.09512632 215.06627762 -3.81103516 206.44555664 C-4.28927734 205.61411133 -4.76751953 204.78266602 -5.26025391 203.92602539 C-6.74516192 201.27760041 -7.98437471 199.00366298 -8.94775391 196.11352539 C-8.28775391 196.11352539 -7.62775391 196.11352539 -6.94775391 196.11352539 C-6.94775391 196.77352539 -6.94775391 197.43352539 -6.94775391 198.11352539 C-6.28775391 198.11352539 -5.62775391 198.11352539 -4.94775391 198.11352539 C-3.95775391 200.42352539 -2.96775391 202.73352539 -1.94775391 205.11352539 C0.45629385 202.70947764 0.91064984 200.92939344 1.92724609 197.69555664 C2.27271484 196.6056543 2.61818359 195.51575195 2.97412109 194.39282227 C3.50779297 192.67675781 3.50779297 192.67675781 4.05224609 190.92602539 C4.58591797 189.23896484 4.58591797 189.23896484 5.13037109 187.51782227 C6.84725143 182.0692897 8.50456558 176.61225567 10.05224609 171.11352539 C10.38224609 170.12352539 10.71224609 169.13352539 11.05224609 168.11352539 C11.14554544 166.46981048 11.18219753 164.82237862 11.17724609 163.17602539 C11.17982422 162.32137695 11.18240234 161.46672852 11.18505859 160.58618164 C11.0599447 158.25685533 10.82922702 156.31169294 10.05224609 154.11352539 C9.39224609 153.78352539 8.73224609 153.45352539 8.05224609 153.11352539 C9.56034566 147.45815202 9.56034566 147.45815202 12.07861328 145.69384766 C14.21077639 144.29023586 14.21077639 144.29023586 14.68994141 142.0390625 C14.7527832 141.24765869 14.815625 140.45625488 14.88037109 139.64086914 C14.95811768 138.74988525 15.03586426 137.85890137 15.1159668 136.94091797 C15.17743896 135.98725342 15.23891113 135.03358887 15.30224609 134.05102539 C15.37596436 133.069646 15.44968262 132.0882666 15.52563477 131.07714844 C17.25966115 111.75209159 17.25966115 111.75209159 13.05224609 93.11352539 C12.39224609 92.45352539 11.73224609 91.79352539 11.05224609 91.11352539 C10.39224609 91.11352539 9.73224609 91.11352539 9.05224609 91.11352539 C9.80224609 84.48852539 9.80224609 84.48852539 12.05224609 81.11352539 C12.05224609 71.27269226 9.59144271 61.7400799 7.05224609 52.30102539 C6.66045166 50.82315552 6.66045166 50.82315552 6.26074219 49.31542969 C6.00631348 48.39673096 5.75188477 47.47803223 5.48974609 46.53149414 C5.26158203 45.70415771 5.03341797 44.87682129 4.79833984 44.02441406 C4.22250309 41.91927105 4.22250309 41.91927105 2.05224609 41.11352539 C1.69414308 38.91957783 1.60906969 36.75439189 1.49365234 34.53540039 C0.95039004 31.55466914 -0.34239496 29.66947771 -1.94775391 27.11352539 C-2.66130562 25.38211314 -3.32773132 23.63058975 -3.94775391 21.86352539 C-4.45435547 20.42686523 -4.45435547 20.42686523 -4.97119141 18.96118164 C-6.32270095 15.02017981 -7.65099451 11.07286178 -8.94775391 7.11352539 C-9.53556641 5.35008789 -9.53556641 5.35008789 -10.13525391 3.55102539 C-10.53744141 2.34446289 -10.53744141 2.34446289 -10.94775391 1.11352539 C-7.56439735 -0.57815289 -3.7208738 -0.01518229 0 0 Z " fill="#3A393E" transform="translate(235.94775390625,-0.113525390625)"/>
<path d="M0 0 C0.75023437 -0.00773438 1.50046875 -0.01546875 2.2734375 -0.0234375 C5.4262542 0.51076068 7.11760382 1.36419852 9.625 3.375 C10.87760114 5.83402343 11.84715781 8.04761253 12.75 10.625 C13.23092213 11.92218996 13.71269017 13.21906664 14.1953125 14.515625 C14.54916016 15.49305664 14.54916016 15.49305664 14.91015625 16.49023438 C15.56015048 18.20401697 16.31030346 19.87896327 17.0703125 21.546875 C19.42485642 26.94999776 20.78206783 32.71414409 22.375 38.375 C26.2678173 51.84791714 30.98611945 63.56945733 38.625 75.375 C38.625 76.035 38.625 76.695 38.625 77.375 C39.20765625 77.66117187 39.7903125 77.94734375 40.390625 78.2421875 C41.75644615 78.93464927 43.10625377 79.66165985 44.421875 80.4453125 C49.45629349 83.16389848 54.14567543 83.77489407 59.8125 83.8125 C60.48958008 83.8223291 61.16666016 83.8321582 61.86425781 83.84228516 C66.50412073 83.7637784 69.6411032 82.69162722 73.625 80.375 C74.95833333 79.70833333 76.29166667 79.04166667 77.625 78.375 C77.625 79.035 77.625 79.695 77.625 80.375 C86.29636689 76.13835501 94.82328552 71.83856044 103.07421875 66.8203125 C105.53716599 65.42476812 107.97426597 64.35887605 110.625 63.375 C107.23627367 66.96306317 103.86358668 69.83184799 99.625 72.375 C98.965 72.375 98.305 72.375 97.625 72.375 C97.295 73.365 96.965 74.355 96.625 75.375 C95.015625 76.8125 95.015625 76.8125 92.875 78.375 C76.33341123 89.77457269 76.33341123 89.77457269 63.625 104.375 C62.965 104.375 62.305 104.375 61.625 104.375 C61.625 105.035 61.625 105.695 61.625 106.375 C60.305 106.705 58.985 107.035 57.625 107.375 C57.5425 107.99375 57.46 108.6125 57.375 109.25 C56.625 111.375 56.625 111.375 54.5625 112.625 C53.923125 112.8725 53.28375 113.12 52.625 113.375 C52.625 114.035 52.625 114.695 52.625 115.375 C51.965 115.375 51.305 115.375 50.625 115.375 C50.625 116.035 50.625 116.695 50.625 117.375 C49.965 117.375 49.305 117.375 48.625 117.375 C48.625 118.035 48.625 118.695 48.625 119.375 C48.00625 119.4575 47.3875 119.54 46.75 119.625 C44.47984059 120.14850074 44.47984059 120.14850074 43.74438477 122.15307617 C42.39151578 124.83845473 40.71186426 126.54718738 38.58984375 128.67578125 C37.77966797 129.48853516 36.96949219 130.30128906 36.13476562 131.13867188 C35.28591797 131.97978516 34.43707031 132.82089844 33.5625 133.6875 C32.74072266 134.51701172 31.91894531 135.34652344 31.07226562 136.20117188 C25.8774897 141.37959918 20.48900934 145.97902168 14.625 150.375 C13.08005944 151.64185126 11.53768655 152.91185367 10 154.1875 C-10.29226335 170.40878459 -33.81589722 182.53850236 -58.40991211 190.69311523 C-60.50997385 191.42183587 -62.56638664 192.23587905 -64.6328125 193.0546875 C-68.82093884 194.53233541 -71.10948454 194.46228825 -75.375 193.375 C-76.365 192.715 -77.355 192.055 -78.375 191.375 C-78.375 190.715 -78.375 190.055 -78.375 189.375 C-79.035 189.375 -79.695 189.375 -80.375 189.375 C-81.82441949 185.02674153 -82.35999514 181.48033312 -80.3515625 177.1875 C-78.76795738 174.52774333 -77.09131357 171.95123975 -75.375 169.375 C-73.95500525 167.18956046 -72.53761159 165.00269595 -71.125 162.8125 C-70.74327637 162.22130371 -70.36155273 161.63010742 -69.96826172 161.02099609 C-55.37281025 138.30558235 -41.93708076 114.06124227 -33.375 88.375 C-34.365 88.045 -35.355 87.715 -36.375 87.375 C-35.75101318 87.29137207 -35.12702637 87.20774414 -34.48413086 87.12158203 C-32.25273131 86.58481189 -32.25273131 86.58481189 -31.35766602 84.66357422 C-31.11717529 83.9263916 -30.87668457 83.18920898 -30.62890625 82.4296875 C-30.21306274 81.19750488 -30.21306274 81.19750488 -29.78881836 79.94042969 C-29.5078833 79.05258789 -29.22694824 78.16474609 -28.9375 77.25 C-28.63529541 76.33637695 -28.33309082 75.42275391 -28.02172852 74.48144531 C-27.41089824 72.63193747 -26.80626397 70.78037116 -26.20800781 68.92675781 C-25.51035123 66.78962223 -24.78320107 64.67026587 -24.0234375 62.5546875 C-18.51115474 46.94248019 -14.76201136 30.61809512 -11.75561523 14.35058594 C-10.42552905 7.52153251 -7.95839179 -0.08148524 0 0 Z " fill="#727276" transform="translate(146.375,158.625)"/>
<path d="M0 0 C0 0.66 0 1.32 0 2 C0.99 2.33 1.98 2.66 3 3 C4.05566406 4.81567383 4.05566406 4.81567383 5.015625 7.20703125 C5.37599854 8.09342285 5.73637207 8.97981445 6.10766602 9.89306641 C6.48463623 10.85647949 6.86160645 11.81989258 7.25 12.8125 C7.64695068 13.80427246 8.04390137 14.79604492 8.45288086 15.81787109 C11.30022857 23.00918327 13.90542362 30.26928012 16.40307617 37.58813477 C18.74483241 44.40818759 21.37204023 51.08899238 24.08569336 57.76855469 C26.1855654 62.94139776 28.19678703 68.13588867 30.125 73.375 C31.97826693 78.40556438 33.97448058 83.33606312 36.125 88.25 C38.43812575 93.54839013 40.39789948 98.86791898 42.140625 104.37890625 C42.97503582 107.02893045 42.97503582 107.02893045 44.0859375 109.65625 C45.27194082 112.69728415 45.39737066 114.75480624 45 118 C43.29565847 121.28243554 41.8703952 123.40315758 38.8125 125.5 C34.67469771 126.2356093 30.91283935 125.50211998 27 124 C25.00080906 122.27623204 23.57873963 120.46385043 21.9375 118.375 C20.22133095 115.93968019 20.22133095 115.93968019 18 115 C18 114.34 18 113.68 18 113 C17.34 113 16.68 113 16 113 C13.375 110.625 13.375 110.625 11 108 C11 107.34 11 106.68 11 106 C10.26007813 105.73574219 9.52015625 105.47148437 8.7578125 105.19921875 C6.01439007 104.00625744 4.16496056 102.71499575 1.875 100.8125 C-11.21147276 90.42913473 -26.79118412 82.25647686 -43 78 C-43.98540771 77.72929687 -43.98540771 77.72929687 -44.99072266 77.453125 C-57.19910276 74.22301952 -69.25671268 73.60182379 -81.8125 73.5625 C-82.91152145 73.55337585 -82.91152145 73.55337585 -84.03274536 73.54406738 C-97.52169638 73.4708143 -110.37114703 75.22143053 -123.25 79.375 C-123.90057373 79.58342529 -124.55114746 79.79185059 -125.22143555 80.0065918 C-130.49064666 81.73417026 -135.58398779 83.81351177 -140.64453125 86.08203125 C-143 87 -143 87 -146 87 C-146.33 88.65 -146.66 90.3 -147 92 C-147.99 91.67 -148.98 91.34 -150 91 C-152.19038423 92.37168238 -152.19038423 92.37168238 -154 94 C-154.66 93.67 -155.32 93.34 -156 93 C-151.25 89 -151.25 89 -149 89 C-149 88.34 -149 87.68 -149 87 C-148.34 87 -147.68 87 -147 87 C-146.731875 86.360625 -146.46375 85.72125 -146.1875 85.0625 C-145 83 -145 83 -142 82 C-142 81.34 -142 80.68 -142 80 C-136.52380952 75 -136.52380952 75 -134 75 C-134 74.34 -134 73.68 -134 73 C-128.52380952 68 -128.52380952 68 -126 68 C-125.505 66.515 -125.505 66.515 -125 65 C-123.51171875 63.75390625 -123.51171875 63.75390625 -121.6875 62.5625 C-119.64861798 61.22241051 -117.95547898 59.95438827 -116.24609375 58.203125 C-113.18854146 55.20406501 -109.81265582 52.73325818 -106.375 50.1875 C-105.65860352 49.65415039 -104.94220703 49.12080078 -104.20410156 48.57128906 C-95.00275915 41.74395109 -85.5728249 35.29497046 -76 29 C-75.05769531 28.37738281 -74.11539063 27.75476563 -73.14453125 27.11328125 C-57.59069957 17 -57.59069957 17 -53 17 C-52.67 16.34 -52.34 15.68 -52 15 C-50.20703125 14.140625 -50.20703125 14.140625 -47.8125 13.25 C-43.54304047 11.62006388 -39.36600238 9.85088025 -35.1875 8 C-29.52666124 5.5554066 -23.85568696 3.58048039 -17.9375 1.859375 C-15.89465343 1.26173372 -13.8686635 0.60459508 -11.859375 -0.09765625 C-7.8959486 -1.34840966 -3.80858965 -1.90429483 0 0 Z " fill="#717176" transform="translate(361,183)"/>
<path d="M0 0 C0.99 0.33 1.98 0.66 3 1 C-0.94870755 6.36229813 -4.76388193 10.88590723 -10 15 C-10.33 15.66 -10.66 16.32 -11 17 C-11.66 17 -12.32 17 -13 17 C-13.0825 17.61875 -13.165 18.2375 -13.25 18.875 C-14 21 -14 21 -16.0625 22.25 C-16.701875 22.4975 -17.34125 22.745 -18 23 C-18 21.35 -18 19.7 -18 18 C-23.68944195 21.27142912 -28.14244746 25.68362683 -32 31 C-32 31.99 -32 32.98 -32 34 C-28.93950063 34.34613723 -28.93950063 34.34613723 -27.17578125 32.25 C-26.25345703 31.13625 -26.25345703 31.13625 -25.3125 30 C-24.68988281 29.2575 -24.06726563 28.515 -23.42578125 27.75 C-22.95527344 27.1725 -22.48476562 26.595 -22 26 C-21.505 27.485 -21.505 27.485 -21 29 C-21.66 29 -22.32 29 -23 29 C-23.2475 29.53625 -23.495 30.0725 -23.75 30.625 C-25.95486814 34.81424947 -28.31542821 38.34654511 -31.75 41.625 C-34.45849643 43.93870794 -34.45849643 43.93870794 -34 48 C-34.66 48.99 -35.32 49.98 -36 51 C-36.66 50.67 -37.32 50.34 -38 50 C-39.39974313 51.39974313 -40.50409325 52.97530617 -41.6875 54.5625 C-42.48607422 55.63177734 -42.48607422 55.63177734 -43.30078125 56.72265625 C-43.86152344 57.47417969 -44.42226562 58.22570312 -45 59 C-46.12459378 60.50030458 -47.24957233 62.00032085 -48.375 63.5 C-48.87773437 64.1703125 -49.38046875 64.840625 -49.8984375 65.53125 C-50.26195312 66.0159375 -50.62546875 66.500625 -51 67 C-51 65.66666667 -51 64.33333333 -51 63 C-51.99 63 -52.98 63 -54 63 C-53.69320312 62.43796875 -53.38640625 61.8759375 -53.0703125 61.296875 C-51.97042415 58.93653066 -51.39904149 56.79534438 -50.875 54.25 C-50.70742187 53.45078125 -50.53984375 52.6515625 -50.3671875 51.828125 C-50.24601563 51.22484375 -50.12484375 50.6215625 -50 50 C-49.34 50 -48.68 50 -48 50 C-47.67 49.34 -47.34 48.68 -47 48 C-46.525625 47.5875 -46.05125 47.175 -45.5625 46.75 C-43.45780295 44.39273931 -42.87769877 42.00925292 -42 39 C-41.67 38.01 -41.34 37.02 -41 36 C-41.66 36 -42.32 36 -43 36 C-43 35.34 -43 34.68 -43 34 C-41.68 34 -40.36 34 -39 34 C-38.67 33.01 -38.34 32.02 -38 31 C-38.99 30.67 -39.98 30.34 -41 30 C-40.10474609 29.32130859 -40.10474609 29.32130859 -39.19140625 28.62890625 C-30.35511237 21.68329041 -22.58310005 13.77447477 -14.7265625 5.75830078 C-13.16001952 4.16296106 -11.58372588 2.57826057 -10 1 C-10 4.90838866 -11.50567876 6.11594107 -14 9 C-11.52271491 7.5615764 -9.11238178 6.07911992 -6.76953125 4.4296875 C-5.97933594 3.87539063 -5.18914062 3.32109375 -4.375 2.75 C-3.61960938 2.20859375 -2.86421875 1.6671875 -2.0859375 1.109375 C-1.39757812 0.74328125 -0.70921875 0.3771875 0 0 Z " fill="#39393F" transform="translate(203,277)"/>
<path d="M0 0 C1.98 0.99 1.98 0.99 4 2 C4.33 1.34 4.66 0.68 5 0 C7.375 0.3125 7.375 0.3125 10 1 C10.66 1.99 11.32 2.98 12 4 C12.33 3.34 12.66 2.68 13 2 C13.66 2.33 14.32 2.66 15 3 C15.33 2.67 15.66 2.34 16 2 C16.99 2.33 17.98 2.66 19 3 C19.11214844 3.67417969 19.22429687 4.34835937 19.33984375 5.04296875 C20.12920501 8.57874672 21.31499849 11.91943566 22.5625 15.3125 C22.79646484 15.95767578 23.03042969 16.60285156 23.27148438 17.26757812 C23.84447007 18.84621219 24.42179464 20.42327026 25 22 C24.34 22.33 23.68 22.66 23 23 C23 23.99 23 24.98 23 26 C23 28.83967231 22.59732819 31.23735711 22 34 C21.34 33.01 20.68 32.02 20 31 C16.93524637 36.76173683 16.80062214 40.62740199 18 47 C17.67 46.34 17.34 45.68 17 45 C16.34 44.67 15.68 44.34 15 44 C14.79727852 41.87142444 14.59592793 39.74270725 14.40234375 37.61328125 C13.53130292 31.95574423 11.42231082 26.69887125 7.75 22.3125 C5.3663377 19.16266053 5.69850995 16.84399819 6 13 C5.34 12.67 4.68 12.34 4 12 C4.66 11.01 5.32 10.02 6 9 C6 8.01 6 7.02 6 6 C5.34 5.67 4.68 5.34 4 5 C4.33 5.99 4.66 6.98 5 8 C4.34 8 3.68 8 3 8 C0.95830515 5.09451118 0 3.59857954 0 0 Z " fill="#323137" transform="translate(400,322)"/>
<path d="M0 0 C0.66 0 1.32 0 2 0 C2.125 6.625 2.125 6.625 1 10 C1.84304687 9.84402344 2.68609375 9.68804687 3.5546875 9.52734375 C5.19824219 9.23537109 5.19824219 9.23537109 6.875 8.9375 C7.96554688 8.74027344 9.05609375 8.54304687 10.1796875 8.33984375 C13 8 13 8 15 9 C12.31907309 11.68092691 10.60832637 11.38670257 6.875 11.625 C5.77929688 11.69976562 4.68359375 11.77453125 3.5546875 11.8515625 C2.71164063 11.90054688 1.86859375 11.94953125 1 12 C0.81824219 13.50626953 0.81824219 13.50626953 0.6328125 15.04296875 C0.1943223 18.64380959 -0.25922741 22.24255542 -0.72216797 25.84033203 C-0.97536832 27.80853088 -1.22424551 29.77728466 -1.47265625 31.74609375 C-2.24824741 37.3837942 -2.94763146 42.14395913 -6 47 C-7.13034797 43.60895609 -6.83772655 42.40612113 -6.0390625 38.9921875 C-5.81476563 38.00476563 -5.59046875 37.01734375 -5.359375 36 C-5.11703125 34.96875 -4.8746875 33.9375 -4.625 32.875 C-3.00400621 25.91007063 -1.63727874 19.12862961 -1 12 C-1.81976318 12.01047363 -2.63952637 12.02094727 -3.48413086 12.03173828 C-42.38042219 12.46279769 -42.38042219 12.46279769 -56 7 C-55.34 5.68 -54.68 4.36 -54 3 C-54 3.99 -54 4.98 -54 6 C-27.59590939 9.5731156 -27.59590939 9.5731156 -1 10 C-0.67 6.7 -0.34 3.4 0 0 Z " fill="#7B7C80" transform="translate(170,241)"/>
<path d="M0 0 C0.33 1.98 0.66 3.96 1 6 C0.01 6.33 -0.98 6.66 -2 7 C-2.84819367 9.50835922 -3.49588429 11.86428914 -4.0625 14.4375 C-4.23313965 15.17323242 -4.4037793 15.90896484 -4.57958984 16.66699219 C-4.91587972 18.12993362 -5.24610887 19.59428341 -5.56982422 21.06005859 C-5.90497235 22.57145872 -6.26254273 24.07789283 -6.62890625 25.58203125 C-7.57197428 29.70331279 -8.13072438 33.85212517 -8.5625 38.0546875 C-8.65644043 38.96766602 -8.75038086 39.88064453 -8.84716797 40.82128906 C-9.24928957 44.87925435 -9.63230266 48.93877695 -10 53 C-10.66 53 -11.32 53 -12 53 C-11.71830435 49.20752509 -11.4227881 45.41624255 -11.125 41.625 C-11.04636719 40.56410156 -10.96773437 39.50320313 -10.88671875 38.41015625 C-10.41504511 32.49609449 -9.69051396 26.88426524 -8.20263672 21.13427734 C-7.95185891 18.4929525 -8.82760113 17.32528732 -10 15 C-7.9 9.9 -7.9 9.9 -6 8 C-6.40929986 5.94603274 -6.40929986 5.94603274 -7 4 C-2.25 0 -2.25 0 0 0 Z " fill="#46464B" transform="translate(150,341)"/>
<path d="M0 0 C1.98 0.99 1.98 0.99 4 2 C4.33 1.34 4.66 0.68 5 0 C7.375 0.3125 7.375 0.3125 10 1 C10.66 1.99 11.32 2.98 12 4 C12.33 3.34 12.66 2.68 13 2 C13.66 2.33 14.32 2.66 15 3 C15.33 2.67 15.66 2.34 16 2 C16.99 2.33 17.98 2.66 19 3 C19.11214844 3.67417969 19.22429687 4.34835937 19.33984375 5.04296875 C20.12920501 8.57874672 21.31499849 11.91943566 22.5625 15.3125 C22.79646484 15.95767578 23.03042969 16.60285156 23.27148438 17.26757812 C23.84447007 18.84621219 24.42179464 20.42327026 25 22 C24.34 22 23.68 22 23 22 C21.9932996 19.73192796 20.99448234 17.46092246 20 15.1875 C19.71382813 14.54490234 19.42765625 13.90230469 19.1328125 13.24023438 C17.86288959 10.32243531 17 8.21734286 17 5 C16.67 5.99 16.34 6.98 16 8 C15.34 8 14.68 8 14 8 C13.67 8.99 13.34 9.98 13 11 C12.34 10.01 11.68 9.02 11 8 C9.68 8 8.36 8 7 8 C6.67 7.01 6.34 6.02 6 5 C5.34 5 4.68 5 4 5 C4.33 5.99 4.66 6.98 5 8 C4.34 8 3.68 8 3 8 C0.95830515 5.09451118 0 3.59857954 0 0 Z " fill="#414046" transform="translate(400,322)"/>
<path d="M0 0 C0.66 0 1.32 0 2 0 C2 0.66 2 1.32 2 2 C2.66 2 3.32 2 4 2 C4.99 4.31 5.98 6.62 7 9 C9.22189824 6.77810176 9.92598892 4.91517292 11 2 C11.6875 3.5625 11.6875 3.5625 12 6 C11.28664049 7.71854792 10.5665505 9.43580442 9.76953125 11.1171875 C8.59258862 13.99681362 8.31377018 16.92505227 8 20 C7.34 20 6.68 20 6 20 C5.27302439 21.74233825 4.56901756 23.49427345 3.875 25.25 C3.48054687 26.22453125 3.08609375 27.1990625 2.6796875 28.203125 C1.890981 31.44860692 2.34552775 32.23029089 4 35 C3.67 35.66 3.34 36.32 3 37 C2.34 37 1.68 37 1 37 C0.505 35.515 0.505 35.515 0 34 C-1.32 36.31 -2.64 38.62 -4 41 C-4.66 40.67 -5.32 40.34 -6 40 C-5.70754395 39.39526855 -5.41508789 38.79053711 -5.11376953 38.16748047 C-3.78044591 35.40510471 -2.45268264 32.64009113 -1.125 29.875 C-0.66480469 28.92367187 -0.20460937 27.97234375 0.26953125 26.9921875 C4.85262759 18.95275223 4.85262759 18.95275223 5.13671875 10.33203125 C4.65847656 9.50058594 4.18023437 8.66914063 3.6875 7.8125 C2.20259198 5.16407502 0.9633792 2.89013759 0 0 Z " fill="#4C4B51" transform="translate(227,196)"/>
<path d="M0 0 C-3 2 -3 2 -5 2 C-5.33 3.32 -5.66 4.64 -6 6 C-3.36 5.67 -0.72 5.34 2 5 C2.33 5.66 2.66 6.32 3 7 C2.01257813 7.19335938 1.02515625 7.38671875 0.0078125 7.5859375 C-1.27351563 7.84632813 -2.55484375 8.10671875 -3.875 8.375 C-5.15117187 8.63023437 -6.42734375 8.88546875 -7.7421875 9.1484375 C-11.05924456 9.72237896 -11.05924456 9.72237896 -13 12 C-13.66 11.67 -14.32 11.34 -15 11 C-16.70702735 10.93003986 -18.41668003 10.91559846 -20.125 10.9375 C-21.03507812 10.94652344 -21.94515625 10.95554688 -22.8828125 10.96484375 C-23.93082031 10.98224609 -23.93082031 10.98224609 -25 11 C-24.67 10.34 -24.34 9.68 -24 9 C-21.71484375 8.5859375 -21.71484375 8.5859375 -18.9375 8.375 C-17.55884766 8.26285156 -17.55884766 8.26285156 -16.15234375 8.1484375 C-15.08693359 8.07496094 -15.08693359 8.07496094 -14 8 C-14.33 7.34 -14.66 6.68 -15 6 C-17.02463255 5.34786708 -17.02463255 5.34786708 -19 5 C-16.33674771 3.98980086 -13.67072374 2.99005129 -11 2 C-9.948125 1.608125 -8.89625 1.21625 -7.8125 0.8125 C-5.04868445 0.0140644 -2.85751349 -0.16808903 0 0 Z " fill="#47464B" transform="translate(415,154)"/>
<path d="M0 0 C4.5503959 3.91839647 7.24859663 8.2112707 9 14 C8.67 14.66 8.34 15.32 8 16 C4 9.25 4 9.25 4 7 C3.01 7 2.02 7 1 7 C1 7.66 1 8.32 1 9 C-0.32 9 -1.64 9 -3 9 C-3 9.99 -3 10.98 -3 12 C-3.99 12.495 -3.99 12.495 -5 13 C-5.165 14.155 -5.33 15.31 -5.5 16.5 C-5.665 17.655 -5.83 18.81 -6 20 C-6.66 20.33 -7.32 20.66 -8 21 C-8.22731216 14.06697907 -7.42002108 7.7831364 -6 1 C-4.33388095 0.957279 -2.66617115 0.95936168 -1 1 C-0.67 1.33 -0.34 1.66 0 2 C0 1.34 0 0.68 0 0 Z " fill="#47464B" transform="translate(145,143)"/>
<path d="M0 0 C0.5534764 2.07553648 1 3.84365964 1 6 C1.66 6 2.32 6 3 6 C1.54440716 9.05814457 -0.13252004 11.86293657 -2 14.6875 C-2.515625 15.47511719 -3.03125 16.26273437 -3.5625 17.07421875 C-5 19 -5 19 -7 20 C-6.34 18.35 -5.68 16.7 -5 15 C-5.33 15.33 -5.66 15.66 -6 16 C-6.99 16 -7.98 16 -9 16 C-8.69320312 15.43796875 -8.38640625 14.8759375 -8.0703125 14.296875 C-6.97042415 11.93653066 -6.39904149 9.79534438 -5.875 7.25 C-5.70742187 6.45078125 -5.53984375 5.6515625 -5.3671875 4.828125 C-5.24601563 4.22484375 -5.12484375 3.6215625 -5 3 C-4.34 3 -3.68 3 -3 3 C-2.67 2.34 -2.34 1.68 -2 1 C-1.34 0.67 -0.68 0.34 0 0 Z " fill="#36353B" transform="translate(158,324)"/>
<path d="M0 0 C-1.32 1.32 -2.64 2.64 -4 4 C-3.319375 3.71125 -2.63875 3.4225 -1.9375 3.125 C1.32893093 1.87402645 4.62846123 0.92552045 8 0 C7.67 0.66 7.34 1.32 7 2 C6.34 2 5.68 2 5 2 C4.67 2.99 4.34 3.98 4 5 C2.41772461 5.9831543 2.41772461 5.9831543 0.40234375 6.82421875 C-0.31630859 7.13037109 -1.03496094 7.43652344 -1.77539062 7.75195312 C-2.53013672 8.06068359 -3.28488281 8.36941406 -4.0625 8.6875 C-4.82111328 9.00783203 -5.57972656 9.32816406 -6.36132812 9.65820312 C-8.23682542 10.44850702 -10.1179123 11.22552197 -12 12 C-12 11.01 -12 10.02 -12 9 C-11.030625 8.566875 -10.06125 8.13375 -9.0625 7.6875 C-5.72268235 6.2985139 -5.72268235 6.2985139 -5 3 C-5.77085937 3.3609375 -6.54171875 3.721875 -7.3359375 4.09375 C-8.33882813 4.5578125 -9.34171875 5.021875 -10.375 5.5 C-11.87160156 6.19609375 -11.87160156 6.19609375 -13.3984375 6.90625 C-16 8 -16 8 -18 8 C-18.33 8.66 -18.66 9.32 -19 10 C-19.66 9.34 -20.32 8.68 -21 8 C-18.77208002 6.87247351 -16.54274113 5.74791861 -14.3125 4.625 C-13.68666016 4.30789062 -13.06082031 3.99078125 -12.41601562 3.6640625 C-2.56972095 -1.28486048 -2.56972095 -1.28486048 0 0 Z " fill="#4A494F" transform="translate(324,186)"/>
<path d="M0 0 C2.55934601 1.279673 2.6989233 2.24201036 3.6875 4.875 C3.95949219 5.57367188 4.23148437 6.27234375 4.51171875 6.9921875 C5 9 5 9 4 12 C3.67 12 3.34 12 3 12 C2.67 12.99 2.34 13.98 2 15 C2 14.34 2 13.68 2 13 C1.34 13 0.68 13 0 13 C0 12.34 0 11.68 0 11 C-1.32 10.34 -2.64 9.68 -4 9 C-1 9 -1 9 1 10 C1 9.34 1 8.68 1 8 C-3.72287233 8.1131843 -7.0752618 8.37721713 -11.0625 11.0625 C-13.68815161 15.04332664 -13.39769099 17.30724632 -13 22 C-13.99 21.34 -14.98 20.68 -16 20 C-16.1875 16.375 -16.1875 16.375 -16 13 C-15.34 13 -14.68 13 -14 13 C-13.7525 12.21625 -13.505 11.4325 -13.25 10.625 C-12 8 -12 8 -10.375 6.6875 C-6.86233535 5.67067602 -3.65099493 5.87830017 0 6 C-0.185625 5.38125 -0.37125 4.7625 -0.5625 4.125 C-1 2 -1 2 0 0 Z " fill="#75747A" transform="translate(399,281)"/>
<path d="M0 0 C1 3 1 3 1 5 C2.32 3.35 3.64 1.7 5 0 C4.86722656 0.556875 4.73445312 1.11375 4.59765625 1.6875 C3.41779695 6.7858701 2.56750461 11.79787441 2 17 C0.109375 16.73828125 0.109375 16.73828125 -2 16 C-3.046875 14.29296875 -3.046875 14.29296875 -3.75 12.1875 C-3.99234375 11.50042969 -4.2346875 10.81335938 -4.484375 10.10546875 C-5 8 -5 8 -5 4 C-4.0409375 3.8453125 -4.0409375 3.8453125 -3.0625 3.6875 C-2.381875 3.460625 -1.70125 3.23375 -1 3 C-0.67 2.01 -0.34 1.02 0 0 Z " fill="#3A393F" transform="translate(176,200)"/>
<path d="M0 0 C0.33 0.99 0.66 1.98 1 3 C3.97 3.495 3.97 3.495 7 4 C6.67 3.01 6.34 2.02 6 1 C8.475 1.99 8.475 1.99 11 3 C6.43252898 7.69091618 3.56366418 10.12484478 -3 11 C-4.125 9.375 -4.125 9.375 -5 7 C-4.3125 3.8125 -4.3125 3.8125 -3 1 C-2.01 0.67 -1.02 0.34 0 0 Z " fill="#6E6F73" transform="translate(223,237)"/>
<path d="M0 0 C0.66 0 1.32 0 2 0 C2.66 1.32 3.32 2.64 4 4 C4.66 3.01 5.32 2.02 6 1 C6.40992188 1.433125 6.81984375 1.86625 7.2421875 2.3125 C7.78101563 2.869375 8.31984375 3.42625 8.875 4 C9.67550781 4.8353125 9.67550781 4.8353125 10.4921875 5.6875 C11.91824988 7.21885522 11.91824988 7.21885522 14 7 C14.33 7.99 14.66 8.98 15 10 C14.01 10.66 13.02 11.32 12 12 C12 11.34 12 10.68 12 10 C10.68 9.67 9.36 9.34 8 9 C6.78918149 12.10540926 6.78918149 12.10540926 7 16 C6.34 16 5.68 16 5 16 C4.16280617 13.70967689 3.3301071 11.41789043 2.5 9.125 C2.14228516 8.14853516 2.14228516 8.14853516 1.77734375 7.15234375 C0 2.2265625 0 2.2265625 0 0 Z " fill="#444348" transform="translate(322,80)"/>
<path d="M0 0 C0.66 0 1.32 0 2 0 C1.89300781 0.92941406 1.78601563 1.85882813 1.67578125 2.81640625 C0.98238504 9.96658871 0.68044045 14.63751087 4 21 C3.67 22.32 3.34 23.64 3 25 C2.01 22.36 1.02 19.72 0 17 C-0.19335938 17.84304687 -0.38671875 18.68609375 -0.5859375 19.5546875 C-0.97652344 21.19824219 -0.97652344 21.19824219 -1.375 22.875 C-1.63023437 23.96554688 -1.88546875 25.05609375 -2.1484375 26.1796875 C-3 29 -3 29 -5 31 C-4.55078686 26.28326202 -4.00723558 21.83624303 -2.8125 17.25 C-1.92136214 13.48232156 -2.1099819 11.48161229 -4 8 C-4.35858516 6.67323492 -4.7018576 5.34164079 -5 4 C-4.34 4 -3.68 4 -3 4 C-2.01 5.485 -2.01 5.485 -1 7 C-0.67 4.69 -0.34 2.38 0 0 Z " fill="#525156" transform="translate(333,93)"/>
<path d="M0 0 C1.65 0.33 3.3 0.66 5 1 C3.23536928 7.10737442 1.30442525 13.07433507 -1 19 C-1.99 19 -2.98 19 -4 19 C-5 16 -5 16 -4.2578125 13.984375 C-3.88398437 13.24703125 -3.51015625 12.5096875 -3.125 11.75 C-1.21829555 7.73277097 -0.37571255 4.41462244 0 0 Z " fill="#47484D" transform="translate(126,376)"/>
<path d="M0 0 C0.78375 0.04125 1.5675 0.0825 2.375 0.125 C3.18359375 2.16796875 3.18359375 2.16796875 3.375 5.125 C2.04862022 7.80124201 0.26338941 10.08299984 -1.5625 12.4375 C-2.04396484 13.08267578 -2.52542969 13.72785156 -3.02148438 14.39257812 C-4.20924292 15.98017618 -5.41538612 17.55399006 -6.625 19.125 C-7.625 17.125 -7.625 17.125 -6.75 14.1875 C-6.37875 13.176875 -6.0075 12.16625 -5.625 11.125 C-5.295 10.135 -4.965 9.145 -4.625 8.125 C-5.285 8.125 -5.945 8.125 -6.625 8.125 C-6.625 7.465 -6.625 6.805 -6.625 6.125 C-5.305 6.125 -3.985 6.125 -2.625 6.125 C-2.295 5.135 -1.965 4.145 -1.625 3.125 C-2.615 2.795 -3.605 2.465 -4.625 2.125 C-2.625 0.125 -2.625 0.125 0 0 Z " fill="#48474D" transform="translate(166.625,304.875)"/>
<path d="M0 0 C0.33 1.32 0.66 2.64 1 4 C2.64666203 3.8864371 4.29236082 3.75882619 5.9375 3.625 C6.85402344 3.55539063 7.77054687 3.48578125 8.71484375 3.4140625 C9.84599609 3.20910156 9.84599609 3.20910156 11 3 C11.33 2.34 11.66 1.68 12 1 C12 1.66 12 2.32 12 3 C13.9490625 2.7525 13.9490625 2.7525 15.9375 2.5 C20.65419287 1.9684362 25.25638935 1.92470459 30 2 C30 2.66 30 3.32 30 4 C28.88141602 4.08302368 28.88141602 4.08302368 27.74023438 4.16772461 C24.32666594 4.422259 20.91333503 4.67985533 17.5 4.9375 C16.32695312 5.02451172 15.15390625 5.11152344 13.9453125 5.20117188 C7.93719092 5.65684402 1.96972795 6.17990124 -4 7 C-4.33 6.34 -4.66 5.68 -5 5 C-4.360625 4.731875 -3.72125 4.46375 -3.0625 4.1875 C-0.66868314 3.11332248 -0.66868314 3.11332248 0 0 Z " fill="#49484D" transform="translate(423,154)"/>
<path d="M0 0 C2 1 2 1 3 3 C3.99 2.67 4.98 2.34 6 2 C6.33 2.99 6.66 3.98 7 5 C6.01 5.33 5.02 5.66 4 6 C3.67 6.99 3.34 7.98 3 9 C2.67 7.68 2.34 6.36 2 5 C-1.40451771 6.13483924 -1.6005564 6.55277937 -3.1875 9.5625 C-3.785625 10.696875 -4.38375 11.83125 -5 13 C-5.66666667 11 -6.33333333 9 -7 7 C-7.66 6.67 -8.32 6.34 -9 6 C-6.03 4.02 -3.06 2.04 0 0 Z " fill="#39383E" transform="translate(151,316)"/>
<path d="M0 0 C0.66 0.33 1.32 0.66 2 1 C1.835 1.70125 1.67 2.4025 1.5 3.125 C0.97584662 6.13888194 0.92900317 8.94713625 1 12 C0.34 12 -0.32 12 -1 12 C-1 12.66 -1 13.32 -1 14 C-3.66666667 12.66666667 -6.33333333 11.33333333 -9 10 C-9 9.34 -9 8.68 -9 8 C-7.68 7.67 -6.36 7.34 -5 7 C-5 6.34 -5 5.68 -5 5 C-4.34 5 -3.68 5 -3 5 C-2.690625 4.360625 -2.38125 3.72125 -2.0625 3.0625 C-1 1 -1 1 0 0 Z " fill="#3D3E43" transform="translate(213,258)"/>
<path d="M0 0 C0.66 0 1.32 0 2 0 C0.55049545 3.7910119 -1.15172566 7.3874638 -3 11 C-3.66 11 -4.32 11 -5 11 C-5.33 12.32 -5.66 13.64 -6 15 C-6.66 15 -7.32 15 -8 15 C-8 16.65 -8 18.3 -8 20 C-8.66 20 -9.32 20 -10 20 C-10.33 20.66 -10.66 21.32 -11 22 C-11.66 21.34 -12.32 20.68 -13 20 C-12.34 19.01 -11.68 18.02 -11 17 C-11.66 17 -12.32 17 -13 17 C-13.33 15.68 -13.66 14.36 -14 13 C-13.34 13 -12.68 13 -12 13 C-11.67 13.66 -11.34 14.32 -11 15 C-10.51789063 14.3503125 -10.03578125 13.700625 -9.5390625 13.03125 C-8.90742188 12.1959375 -8.27578125 11.360625 -7.625 10.5 C-6.99851563 9.6646875 -6.37203125 8.829375 -5.7265625 7.96875 C-5.15679687 7.3190625 -4.58703125 6.669375 -4 6 C-3.34 6 -2.68 6 -2 6 C-1.34 4.02 -0.68 2.04 0 0 Z " fill="#7C7D81" transform="translate(214,246)"/>
<path d="M0 0 C0 2.87137415 -0.27113266 5.2303041 -1 8 C-1.99 8.495 -1.99 8.495 -3 9 C-3 9.66 -3 10.32 -3 11 C-2.34 11.33 -1.68 11.66 -1 12 C-0.34 12.33 0.32 12.66 1 13 C2.67654729 12.72057545 4.34608154 12.39171753 6 12 C3.76224766 15.3566285 3.06679952 15.57996014 -0.625 16.6875 C-1.44226563 16.93886719 -2.25953125 17.19023437 -3.1015625 17.44921875 C-3.72804688 17.63097656 -4.35453125 17.81273437 -5 18 C-4.67 17.34 -4.34 16.68 -4 16 C-3.34 16 -2.68 16 -2 16 C-2 15.34 -2 14.68 -2 14 C-2.99 14.33 -3.98 14.66 -5 15 C-5.66 14.01 -6.32 13.02 -7 12 C-6.34 11.67 -5.68 11.34 -5 11 C-5.66 10.67 -6.32 10.34 -7 10 C-6.52727227 5.74545047 -4.03562624 3.80795427 -1 1 C-0.67 0.67 -0.34 0.34 0 0 Z " fill="#424146" transform="translate(297,183)"/>
<path d="M0 0 C1.02104551 0.97850195 2.0206121 1.97980427 3 3 C3.99 3.33 4.98 3.66 6 4 C6 4.66 6 5.32 6 6 C1.44508386 8.20399168 -3.02906176 8.58846263 -8 9 C-7.34 8.01 -6.68 7.02 -6 6 C-6 5.01 -6 4.02 -6 3 C-3.9398797 0.3512739 -3.48011144 0 0 0 Z " fill="#424147" transform="translate(68,348)"/>
<path d="M0 0 C4 0 4 0 6 1 C6.33 1.99 6.66 2.98 7 4 C6.01 4 5.02 4 4 4 C3.67 11.59 3.34 19.18 3 27 C2.34 26.67 1.68 26.34 1 26 C0.67 17.42 0.34 8.84 0 0 Z " fill="#4E4D52" transform="translate(333,54)"/>
<path d="M0 0 C3 1 3 1 6 4 C3.03 6.31 0.06 8.62 -3 11 C-3.66 10.34 -4.32 9.68 -5 9 C-6.31747324 8.30251417 -7.64914193 7.63040043 -9 7 C-8.01 6.67 -7.02 6.34 -6 6 C-4.45833358 4.62514468 -4.45833358 4.62514468 -3 3 C-2 2 -1 1 0 0 Z " fill="#3A393E" transform="translate(264,219)"/>
<path d="M0 0 C0 1.32 0 2.64 0 4 C-2.6210121 5.19706817 -5.24614696 6.38288646 -7.875 7.5625 C-8.62136719 7.90474609 -9.36773437 8.24699219 -10.13671875 8.59960938 C-12.06549332 9.45973857 -14.0311033 10.23616798 -16 11 C-16.66 10.67 -17.32 10.34 -18 10 C-17.67 9.34 -17.34 8.68 -17 8 C-18.98 8.66 -20.96 9.32 -23 10 C-23 9.34 -23 8.68 -23 8 C-21.42274653 7.29866401 -19.83788667 6.614417 -18.25 5.9375 C-16.92742187 5.36322266 -16.92742187 5.36322266 -15.578125 4.77734375 C-12.77860365 3.93324565 -11.71825132 4.17070299 -9 5 C-6.29534258 4.13545562 -6.29534258 4.13545562 -4 3 C-4 2.34 -4 1.68 -4 1 C-2 0 -2 0 0 0 Z " fill="#525156" transform="translate(350,175)"/>
<path d="M0 0 C0 3.90838866 -1.50567876 5.11594107 -4 8 C-3.01 8.33 -2.02 8.66 -1 9 C-6.75 13 -6.75 13 -9 13 C-9 13.99 -9 14.98 -9 16 C-9.66 16 -10.32 16 -11 16 C-11.66 17.32 -12.32 18.64 -13 20 C-13.66 19.34 -14.32 18.68 -15 18 C-14.67 17.34 -14.34 16.68 -14 16 C-13.34 16 -12.68 16 -12 16 C-11.814375 15.154375 -11.62875 14.30875 -11.4375 13.4375 C-9.53061496 8.87755751 -6.58565115 6.29816019 -3 3 C-1.99545462 2.00456614 -0.99390261 1.00606044 0 0 Z " fill="#4B4C51" transform="translate(193,278)"/>
<path d="M0 0 C0.33 0.66 0.66 1.32 1 2 C-0.89545392 2.48066535 -2.79138039 2.95946743 -4.6875 3.4375 C-6.27111328 3.83775391 -6.27111328 3.83775391 -7.88671875 4.24609375 C-10.5828317 4.89897932 -13.2757576 5.47941193 -16 6 C-16 7.65 -16 9.3 -16 11 C-16.99 10.67 -17.98 10.34 -19 10 C-20.1875 6.9375 -20.1875 6.9375 -21 4 C-15.81209515 2.27069838 -11.28159661 0.84915243 -5.8125 0.4375 C-4.18248047 0.31181641 -4.18248047 0.31181641 -2.51953125 0.18359375 C-1.68808594 0.12300781 -0.85664063 0.06242188 0 0 Z " fill="#7C7D81" transform="translate(212,243)"/>
<path d="M0 0 C0.33 0 0.66 0 1 0 C0.48378772 6.83981276 -1.48590969 12.63876684 -4 19 C-2.02 18.34 -0.04 17.68 2 17 C1.09515208 18.15518918 0.1755794 19.29885406 -0.75 20.4375 C-1.26046875 21.07558594 -1.7709375 21.71367187 -2.296875 22.37109375 C-4.19667629 24.18810554 -5.43586908 24.60423197 -8 25 C-8 21.79455038 -7.35624429 19.88484784 -6.25 16.89453125 C-5.8890625 15.91162109 -5.528125 14.92871094 -5.15625 13.91601562 C-4.58390625 12.37977539 -4.58390625 12.37977539 -4 10.8125 C-3.6184375 9.77673828 -3.236875 8.74097656 -2.84375 7.67382812 C-1.90013111 5.1142619 -0.9520568 2.5564371 0 0 Z M-6 20 C-5.34 20.66 -4.68 21.32 -4 22 C-4 21.34 -4 20.68 -4 20 C-4.66 20 -5.32 20 -6 20 Z " fill="#7A7A7F" transform="translate(162,288)"/>
<path d="M0 0 C2.6465335 2.6465335 3.59941997 5.56221264 5 9 C6.32 8.67 7.64 8.34 9 8 C8.2265625 9.4540625 8.2265625 9.4540625 7.4375 10.9375 C5.47389532 15.41525272 6.11646433 19.30555147 7 24 C6.67 23.34 6.34 22.68 6 22 C5.34 21.67 4.68 21.34 4 21 C3.69140625 19.25 3.69140625 19.25 3.5625 17 C3.18982923 12.6797796 2.1377292 8.99451145 0.62109375 4.9453125 C0 3 0 3 0 0 Z " fill="#434248" transform="translate(411,345)"/>
<path d="M0 0 C-1.09546117 1.48562542 -2.20168823 2.96331709 -3.3125 4.4375 C-3.92738281 5.26121094 -4.54226562 6.08492188 -5.17578125 6.93359375 C-7 9 -7 9 -10 10 C-10 9.34 -10 8.68 -10 8 C-11.32 7.67 -12.64 7.34 -14 7 C-4.22727273 -1.40909091 -4.22727273 -1.40909091 0 0 Z " fill="#44454A" transform="translate(206,278)"/>
<path d="M0 0 C2 1 2 1 3 3 C-2.75 7 -2.75 7 -5 7 C-5 7.66 -5 8.32 -5 9 C-8.6125362 10.84827434 -12.2089881 12.55049545 -16 14 C-11.375 9.125 -11.375 9.125 -8 8 C-7.71125 7.195625 -7.4225 6.39125 -7.125 5.5625 C-6 3 -6 3 -3.4375 1.75 C-2.633125 1.5025 -1.82875 1.255 -1 1 C-0.67 0.67 -0.34 0.34 0 0 Z " fill="#545358" transform="translate(273,208)"/>
<path d="M0 0 C0.66 0.33 1.32 0.66 2 1 C2.33 1.99 2.66 2.98 3 4 C5.01508358 4.73323796 5.01508358 4.73323796 7 5 C5.54735962 5.8638129 4.0876837 6.71580454 2.625 7.5625 C1.40683594 8.27599609 1.40683594 8.27599609 0.1640625 9.00390625 C-0.55007813 9.33261719 -1.26421875 9.66132813 -2 10 C-2.66 9.67 -3.32 9.34 -4 9 C-3.6875 5.625 -3.6875 5.625 -3 2 C-2.01 1.34 -1.02 0.68 0 0 Z " fill="#454449" transform="translate(285,197)"/>
<path d="M0 0 C0.66 0 1.32 0 2 0 C2.33 7.92 2.66 15.84 3 24 C2.34 24 1.68 24 1 24 C0.07113542 19.06442297 -0.33494234 14.1909947 -0.625 9.1875 C-0.6765625 8.41212891 -0.728125 7.63675781 -0.78125 6.83789062 C-0.89689713 4.89399848 -0.95359797 2.94677626 -1 1 C-0.67 0.67 -0.34 0.34 0 0 Z M-3 16 C-2.01 16.99 -1.02 17.98 0 19 C-0.99 19 -1.98 19 -3 19 C-3 18.01 -3 17.02 -3 16 Z " fill="#4C4B50" transform="translate(158,134)"/>
<path d="M0 0 C2.31 0 4.62 0 7 0 C6.67 0.66 6.34 1.32 6 2 C6.54216107 4.234972 6.54216107 4.234972 7.4375 6.625 C7.72496094 7.44226563 8.01242188 8.25953125 8.30859375 9.1015625 C8.53675781 9.72804688 8.76492187 10.35453125 9 11 C6.9754262 9.06745228 5.57894208 7.36841312 4 5 C3.01 6.485 3.01 6.485 2 8 C2 7.34 2 6.68 2 6 C0.68 6.33 -0.64 6.66 -2 7 C-2.33 5.68 -2.66 4.36 -3 3 C-2.01 2.67 -1.02 2.34 0 2 C0 1.34 0 0.68 0 0 Z " fill="#454449" transform="translate(220,0)"/>
<path d="M0 0 C0.66 0 1.32 0 2 0 C1.67 1.32 1.34 2.64 1 4 C0.34 4 -0.32 4 -1 4 C-1 4.66 -1 5.32 -1 6 C-1.66 6 -2.32 6 -3 6 C-2.67 6.99 -2.34 7.98 -2 9 C-2 9.99 -2 10.98 -2 12 C-2.66 12 -3.32 12 -4 12 C-4.33 12.66 -4.66 13.32 -5 14 C-5.66 13.01 -6.32 12.02 -7 11 C-8.65 12.65 -10.3 14.3 -12 16 C-12.66 15.67 -13.32 15.34 -14 15 C-12.98679687 14.00419922 -12.98679687 14.00419922 -11.953125 12.98828125 C-11.06109375 12.10527344 -10.1690625 11.22226562 -9.25 10.3125 C-8.36828125 9.44238281 -7.4865625 8.57226562 -6.578125 7.67578125 C-3.9653261 5.05815616 -3.9653261 5.05815616 -1.796875 2.16796875 C-1.20390625 1.45253906 -0.6109375 0.73710937 0 0 Z " fill="#444349" transform="translate(125,353)"/>
<path d="M0 0 C0.51046875 0.15339844 1.0209375 0.30679688 1.546875 0.46484375 C4.7749338 1.16905403 7.95418001 1.34888204 11.25 1.5625 C12.51328125 1.64628906 13.7765625 1.73007813 15.078125 1.81640625 C16.04234375 1.87699219 17.0065625 1.93757812 18 2 C18 2.33 18 2.66 18 3 C17.25234375 3.06058594 16.5046875 3.12117187 15.734375 3.18359375 C14.74953125 3.26738281 13.7646875 3.35117188 12.75 3.4375 C11.77546875 3.51871094 10.8009375 3.59992188 9.796875 3.68359375 C7.42475703 3.95194788 5.29768458 4.38728411 3 5 C0.66905466 5.3496418 -1.66404762 5.68554487 -4 6 C-4 5.01 -4 4.02 -4 3 C-2.68 2.67 -1.36 2.34 0 2 C0 1.34 0 0.68 0 0 Z " fill="#6B6C70" transform="translate(194,241)"/>
<path d="M0 0 C2.16575619 3.24863429 3.62352411 6.60622857 5.125 10.1875 C5.40214844 10.84169922 5.67929687 11.49589844 5.96484375 12.16992188 C6.64597045 13.77879012 7.32335403 15.38924215 8 17 C10.97 16.67 13.94 16.34 17 16 C14.8125 18.5 14.8125 18.5 12 21 C9.32421875 21.15625 9.32421875 21.15625 7 21 C5.82461539 18.25343799 4.65950248 15.50325878 3.5 12.75 C3.16613281 11.97269531 2.83226562 11.19539062 2.48828125 10.39453125 C2.01455078 9.26337891 2.01455078 9.26337891 1.53125 8.109375 C1.09135742 7.07248535 1.09135742 7.07248535 0.64257812 6.01464844 C0 4 0 4 0 0 Z " fill="#515055" transform="translate(351,154)"/>
<path d="M0 0 C1.24881179 3.54734944 0.73522457 5.67616446 -0.43359375 9.203125 C-0.75263672 10.1828125 -1.07167969 11.1625 -1.40039062 12.171875 C-1.74263672 13.18765625 -2.08488281 14.2034375 -2.4375 15.25 C-2.77587891 16.28125 -3.11425781 17.3125 -3.46289062 18.375 C-4.2993977 20.9198666 -5.14537912 23.46117074 -6 26 C-6.33 25.01 -6.66 24.02 -7 23 C-6.67 22.34 -6.34 21.68 -6 21 C-7.32 21 -8.64 21 -10 21 C-9.67 19.68 -9.34 18.36 -9 17 C-8.67 17.66 -8.34 18.32 -8 19 C-7.01 19 -6.02 19 -5 19 C-4.9175 18.0925 -4.835 17.185 -4.75 16.25 C-3.9731113 10.62625347 -1.88196771 5.33078295 0 0 Z " fill="#47484D" transform="translate(119,406)"/>
<path d="M0 0 C0.33 0.66 0.66 1.32 1 2 C0.37915039 3.78759766 0.37915039 3.78759766 -0.65234375 5.9140625 C-1.01650391 6.67460938 -1.38066406 7.43515625 -1.75585938 8.21875 C-2.14580078 9.0128125 -2.53574219 9.806875 -2.9375 10.625 C-3.32357422 11.42679688 -3.70964844 12.22859375 -4.10742188 13.0546875 C-5.06461573 15.03997846 -6.02903475 17.02141737 -7 19 C-7.66 18.34 -8.32 17.68 -9 17 C-8.67889311 13.46782421 -8.12183498 10.36550494 -7 7 C-6.01 7 -5.02 7 -4 7 C-2.68 4.69 -1.36 2.38 0 0 Z " fill="#4C4B50" transform="translate(183,45)"/>
<path d="M0 0 C0.33 1.98 0.66 3.96 1 6 C0.01 6.33 -0.98 6.66 -2 7 C-2.70381157 8.98723268 -3.3711811 10.98777953 -4 13 C-4.99 13.495 -4.99 13.495 -6 14 C-5.34 12.02 -4.68 10.04 -4 8 C-4.66 8 -5.32 8 -6 8 C-6.33 6.68 -6.66 5.36 -7 4 C-2.25 0 -2.25 0 0 0 Z " fill="#4C4B51" transform="translate(150,341)"/>
<path d="M0 0 C0 3.98521103 -0.44369387 6.30377294 -2 10 C-2.99 10 -3.98 10 -5 10 C-5.33 10.33 -5.66 10.66 -6 11 C-6.99 11.66 -7.98 12.32 -9 13 C-8.875 9.75 -8.875 9.75 -8 6 C-5.0625 3.6875 -5.0625 3.6875 -2 2 C-1.34 1.34 -0.68 0.68 0 0 Z " fill="#424147" transform="translate(170,317)"/>
<path d="M0 0 C0.33 0.66 0.66 1.32 1 2 C1.99 2.33 2.98 2.66 4 3 C2.71034824 4.37562854 1.37310707 5.70766393 0 7 C-0.66 7 -1.32 7 -2 7 C-2.2165625 7.8971875 -2.2165625 7.8971875 -2.4375 8.8125 C-2.8872439 10.56150404 -3.42892341 12.28677023 -4 14 C-4.66 14 -5.32 14 -6 14 C-7 11 -7 11 -6.07421875 8.80859375 C-5.61660156 8.02613281 -5.15898437 7.24367188 -4.6875 6.4375 C-4.23761719 5.65246094 -3.78773438 4.86742187 -3.32421875 4.05859375 C-2 2 -2 2 0 0 Z " fill="#302F35" transform="translate(165,316)"/>
<path d="M0 0 C0.33 0.66 0.66 1.32 1 2 C0.40832031 2.01417969 -0.18335938 2.02835937 -0.79296875 2.04296875 C-5.01508363 2.29781092 -7.4885755 2.65557126 -11.0625 5.0625 C-13.68815161 9.04332664 -13.39769099 11.30724632 -13 16 C-13.99 15.34 -14.98 14.68 -16 14 C-16.1875 10.375 -16.1875 10.375 -16 7 C-15.34 7 -14.68 7 -14 7 C-13.7525 6.21625 -13.505 5.4325 -13.25 4.625 C-12 2 -12 2 -10.375 0.6875 C-6.86233535 -0.32932398 -3.65099493 -0.12169983 0 0 Z " fill="#7B7A80" transform="translate(399,287)"/>
<path d="M0 0 C0 2 0 2 -1.25 3.375 C-1.8275 3.91125 -2.405 4.4475 -3 5 C-3.5775 5.680625 -4.155 6.36125 -4.75 7.0625 C-7.62769243 9.54051292 -10.33897559 10.15514821 -14 11 C-14 9.68 -14 8.36 -14 7 C-13.319375 6.95875 -12.63875 6.9175 -11.9375 6.875 C-8.26118337 5.77992696 -6.30670183 3.87438642 -3.55078125 1.27734375 C-2 0 -2 0 0 0 Z " fill="#444349" transform="translate(479,284)"/>
<path d="M0 0 C19.02439024 -0.31707317 19.02439024 -0.31707317 24 3 C22.68 3 21.36 3 20 3 C19.67 3.66 19.34 4.32 19 5 C19 4.34 19 3.68 19 3 C17.19402344 2.92652344 17.19402344 2.92652344 15.3515625 2.8515625 C13.77601802 2.77653657 12.20049834 2.70098867 10.625 2.625 C9.8309375 2.5940625 9.036875 2.563125 8.21875 2.53125 C2.2265625 2.2265625 2.2265625 2.2265625 0 0 Z " fill="#47464C" transform="translate(322,330)"/>
<path d="M0 0 C0.66 0.33 1.32 0.66 2 1 C1.79503906 1.60328125 1.59007813 2.2065625 1.37890625 2.828125 C1.10949219 3.62734375 0.84007813 4.4265625 0.5625 5.25 C0.29566406 6.03890625 0.02882813 6.8278125 -0.24609375 7.640625 C-0.91954708 9.74821988 -1.49150595 11.84753973 -2 14 C-2.33 13.67 -2.66 13.34 -3 13 C-3.99 13.99 -4.98 14.98 -6 16 C-6.625 13.625 -6.625 13.625 -7 11 C-6.34 10.34 -5.68 9.68 -5 9 C-3.05731159 6.08596738 -1.53604696 3.14191424 0 0 Z " fill="#424348" transform="translate(116,402)"/>
<path d="M0 0 C0.33 0.66 0.66 1.32 1 2 C0.0625 4.125 0.0625 4.125 -1 6 C-0.34 5.34 0.32 4.68 1 4 C1.99 3.67 2.98 3.34 4 3 C2.6062718 7.43458973 0.39417765 9.87378374 -3 13 C-2.34 11.35 -1.68 9.7 -1 8 C-1.33 8.33 -1.66 8.66 -2 9 C-2.99 9 -3.98 9 -5 9 C-3.50163895 5.88801935 -1.80066242 2.9465385 0 0 Z " fill="#49484E" transform="translate(154,331)"/>
<path d="M0 0 C2.475 0.99 2.475 0.99 5 2 C5.8125 4.125 5.8125 4.125 6 6 C5.01 6.33 4.02 6.66 3 7 C3 7.66 3 8.32 3 9 C2.34 9 1.68 9 1 9 C0.67 9.66 0.34 10.32 0 11 C0 7.37 0 3.74 0 0 Z " fill="#3B3A40" transform="translate(0,401)"/>
<path d="M0 0 C0 0.66 0 1.32 0 2 C-0.99 2.33 -1.98 2.66 -3 3 C-3.99 4.485 -3.99 4.485 -5 6 C-5 5.01 -5 4.02 -5 3 C-5.66 3 -6.32 3 -7 3 C-7.33 3.66 -7.66 4.32 -8 5 C-8.99 5.66 -9.98 6.32 -11 7 C-11.33 5.02 -11.66 3.04 -12 1 C-7.915021 0.45533613 -4.1274515 0 0 0 Z " fill="#414046" transform="translate(44,359)"/>
<path d="M0 0 C3.80133442 1.67923025 6.97082702 4.11462834 10.25 6.625 C10.80429687 7.04523438 11.35859375 7.46546875 11.9296875 7.8984375 C13.28866663 8.92938719 14.64463835 9.96429911 16 11 C13.13822943 12.43088528 11.06624227 11.59991697 8 11 C8.66 10.67 9.32 10.34 10 10 C10 9.34 10 8.68 10 8 C9.46375 7.7525 8.9275 7.505 8.375 7.25 C5.4176018 5.69347463 2.70275949 3.96564327 0 2 C0 1.34 0 0.68 0 0 Z " fill="#4B4A50" transform="translate(44,212)"/>
<path d="M0 0 C1.17498936 3.52496808 0.72437963 4.50350021 -0.4375 7.9375 C-1.57360799 11.31525604 -2 13.34724574 -2 17 C-3.32 16.67 -4.64 16.34 -6 16 C-6.33 14.35 -6.66 12.7 -7 11 C-6.01 10.67 -5.02 10.34 -4 10 C-3.01672597 8.20200258 -3.01672597 8.20200258 -2.375 6.0625 C-1.66251244 3.95185136 -0.99716245 1.9943249 0 0 Z " fill="#49484E" transform="translate(180,200)"/>
<path d="M0 0 C2.27467773 2.27467773 2.75132436 3.76650412 3.6875 6.8125 C4.09548828 8.09060547 4.09548828 8.09060547 4.51171875 9.39453125 C5.04831986 12.25783475 4.74719439 14.20679682 4 17 C3.34 16.67 2.68 16.34 2 16 C1.52402634 13.29400158 1.15906371 10.66404596 0.875 7.9375 C0.78863281 7.17888672 0.70226562 6.42027344 0.61328125 5.63867188 C0.40060483 3.76003014 0.19924541 1.88011364 0 0 Z " fill="#7F7E83" transform="translate(165,190)"/>
<path d="M0 0 C0.66 0.33 1.32 0.66 2 1 C2 1.99 2 2.98 2 4 C-2.29 5.65 -6.58 7.3 -11 9 C-11.33 8.34 -11.66 7.68 -12 7 C-9.33333333 5.66666667 -6.66666667 4.33333333 -4 3 C-3.67 2.34 -3.34 1.68 -3 1 C-2.01 0.67 -1.02 0.34 0 0 Z " fill="#45444A" transform="translate(423,315)"/>
<path d="M0 0 C-0.0625 1.8125 -0.0625 1.8125 -1 4 C-4.5625 5.75 -4.5625 5.75 -8 7 C-8 6.34 -8 5.68 -8 5 C-8.99 4.67 -9.98 4.34 -11 4 C-9.73308493 3.32591692 -8.46129251 2.66099503 -7.1875 2 C-6.47980469 1.62875 -5.77210938 1.2575 -5.04296875 0.875 C-3 0 -3 0 0 0 Z " fill="#353439" transform="translate(319,189)"/>
<path d="M0 0 C2 1 2 1 4 3 C4.36933645 5.75372909 4.18336678 8.20365661 4 11 C3.34 11 2.68 11 2 11 C2 10.34 2 9.68 2 9 C1.01 8.67 0.02 8.34 -1 8 C-1 7.34 -1 6.68 -1 6 C-1.66 5.67 -2.32 5.34 -3 5 C-2.01 5 -1.02 5 0 5 C0 3.35 0 1.7 0 0 Z " fill="#444348" transform="translate(359,174)"/>
<path d="M0 0 C1 2 2 4 3 6 C3.66 5.67 4.32 5.34 5 5 C4.75 6.875 4.75 6.875 4 9 C1.9375 10.25 1.9375 10.25 0 11 C0 9.35 0 7.7 0 6 C-0.99 6.33 -1.98 6.66 -3 7 C-1.125 1.125 -1.125 1.125 0 0 Z " fill="#3F4045" transform="translate(185,289)"/>
<path d="M0 0 C0.33 0 0.66 0 1 0 C1.66 3.96 2.32 7.92 3 12 C2.34 12 1.68 12 1 12 C0.34 12.66 -0.32 13.32 -1 14 C-2.36986301 3.55479452 -2.36986301 3.55479452 0 0 Z " fill="#535257" transform="translate(141,129)"/>
<path d="M0 0 C0.721875 0.185625 1.44375 0.37125 2.1875 0.5625 C5.12826973 1.01995307 7.14103058 0.73516357 10 0 C9.7525 0.5775 9.505 1.155 9.25 1.75 C9.1675 2.4925 9.085 3.235 9 4 C10.85432087 6.27144074 10.85432087 6.27144074 13 8 C11.02 7.34 9.04 6.68 7 6 C7 5.34 7 4.68 7 4 C6.21625 3.71125 5.4325 3.4225 4.625 3.125 C2 2 2 2 0 0 Z " fill="#4D4C51" transform="translate(80,80)"/>
<path d="M0 0 C3.42931954 3.7559214 4.56429083 8.23466745 6 13 C5.01 13 4.02 13 3 13 C1 11 1 11 0.875 7.375 C0.91625 6.26125 0.9575 5.1475 1 4 C0.34 3.67 -0.32 3.34 -1 3 C-0.67 2.01 -0.34 1.02 0 0 Z " fill="#444349" transform="translate(405,331)"/>
<path d="M0 0 C0.33 0.99 0.66 1.98 1 3 C0.67 3.66 0.34 4.32 0 5 C-0.66 5 -1.32 5 -2 5 C-2 5.66 -2 6.32 -2 7 C-3.32 7.33 -4.64 7.66 -6 8 C-6.33 6.02 -6.66 4.04 -7 2 C-6.030625 1.855625 -5.06125 1.71125 -4.0625 1.5625 C-1.13513227 1.32437659 -1.13513227 1.32437659 0 0 Z " fill="#77787D" transform="translate(197,271)"/>
<path d="M0 0 C0 0.66 0 1.32 0 2 C1.65 2 3.3 2 5 2 C5 2.33 5 2.66 5 3 C3.02 3 1.04 3 -1 3 C-1 2.34 -1 1.68 -1 1 C-1.99 1.33 -2.98 1.66 -4 2 C-3.67 2.66 -3.34 3.32 -3 4 C-3.66 4 -4.32 4 -5 4 C-5 4.66 -5 5.32 -5 6 C-6.32 5.34 -7.64 4.68 -9 4 C-8.67 3.01 -8.34 2.02 -8 1 C-5.07175348 0.02391783 -3.04386724 -0.08226668 0 0 Z " fill="#3A3B40" transform="translate(259,257)"/>
<path d="M0 0 C-2.475 4.455 -2.475 4.455 -5 9 C-5.66666667 7 -6.33333333 5 -7 3 C-7.66 2.67 -8.32 2.34 -9 2 C-5.5647952 -0.29013653 -4.014669 -0.17842973 0 0 Z " fill="#444349" transform="translate(151,320)"/>
<path d="M0 0 C0.33 0 0.66 0 1 0 C1 1.65 1 3.3 1 5 C0.01 5.33 -0.98 5.66 -2 6 C-2.33 6.99 -2.66 7.98 -3 9 C-5.95664519 10.4783226 -8.74229737 10.06032783 -12 10 C-12 9.34 -12 8.68 -12 8 C-7.545 7.505 -7.545 7.505 -3 7 C-3 6.34 -3 5.68 -3 5 C-2.34 4.67 -1.68 4.34 -1 4 C-0.34786708 1.97536745 -0.34786708 1.97536745 0 0 Z " fill="#7D7C81" transform="translate(364,194)"/>
<path d="M0 0 C-3.07692746 2.6815279 -5.19734663 3.42087807 -9.25 3.6875 C-10.14203125 3.75324219 -11.0340625 3.81898438 -11.953125 3.88671875 C-12.62859375 3.92410156 -13.3040625 3.96148437 -14 4 C-9.26864616 0.35895814 -6.02044068 -1.72012591 0 0 Z " fill="#56555A" transform="translate(382,166)"/>
<path d="M0 0 C0.33 0.99 0.66 1.98 1 3 C0.34 3 -0.32 3 -1 3 C-1.2475 3.53625 -1.495 4.0725 -1.75 4.625 C-5.9787234 12.65957447 -5.9787234 12.65957447 -10 14 C-8.62815653 9.93501119 -6.77931541 7.32603439 -3.875 4.1875 C-3.15054688 3.39730469 -2.42609375 2.60710937 -1.6796875 1.79296875 C-1.12539062 1.20128906 -0.57109375 0.60960937 0 0 Z " fill="#4B4A50" transform="translate(181,303)"/>
<path d="M0 0 C0.33 0.66 0.66 1.32 1 2 C1.66 2 2.32 2 3 2 C3.69699552 3.45381897 4.38233866 4.91322953 5.0625 6.375 C5.63677734 7.59316406 5.63677734 7.59316406 6.22265625 8.8359375 C6.60744141 9.90714844 6.60744141 9.90714844 7 11 C6.67 11.66 6.34 12.32 6 13 C4 12 4 12 3.25390625 10.1875 C2.79320467 8.72991309 2.33486771 7.27157666 1.87890625 5.8125 C1.58886719 5.214375 1.29882812 4.61625 1 4 C0.01 3.67 -0.98 3.34 -2 3 C-1 1 -1 1 0 0 Z " fill="#434449" transform="translate(153,457)"/>
<path d="M0 0 C0.66 0.33 1.32 0.66 2 1 C0.515 2.485 0.515 2.485 -1 4 C-0.34 4.66 0.32 5.32 1 6 C0.34 6 -0.32 6 -1 6 C-1.33 6.66 -1.66 7.32 -2 8 C-2.66 7.34 -3.32 6.68 -4 6 C-6.58354218 5.83312552 -6.58354218 5.83312552 -9 6 C-3.30379747 1.25316456 -3.30379747 1.25316456 0 0 Z " fill="#45444A" transform="translate(450,304)"/>
<path d="M0 0 C0.99 0.33 1.98 0.66 3 1 C2.34 1.66 1.68 2.32 1 3 C0.67 2.01 0.34 1.02 0 0 Z M-2 2 C0 3 0 3 2 6 C-0.31 6.33 -2.62 6.66 -5 7 C-4.67 6.01 -4.34 5.02 -4 4 C-3.34 4 -2.68 4 -2 4 C-2 3.34 -2 2.68 -2 2 Z " fill="#393A3F" transform="translate(199,272)"/>
<path d="M0 0 C2.475 0.99 2.475 0.99 5 2 C3.35 3.65 1.7 5.3 0 7 C-0.33 6.34 -0.66 5.68 -1 5 C-1.66 4.67 -2.32 4.34 -3 4 C-2.01 2.68 -1.02 1.36 0 0 Z " fill="#6F6E73" transform="translate(235,233)"/>
<path d="M0 0 C3.44393065 2.66121914 4.09770622 5.86448683 5 10 C4.67 10.66 4.34 11.32 4 12 C3.34 10.35 2.68 8.7 2 7 C1.01 7 0.02 7 -1 7 C-0.67 4.69 -0.34 2.38 0 0 Z " fill="#4B4A4F" transform="translate(337,118)"/>
<path d="M0 0 C4 0 4 0 6 1 C6.33 1.99 6.66 2.98 7 4 C6.01 4 5.02 4 4 4 C3.67 5.32 3.34 6.64 3 8 C2.34 8 1.68 8 1 8 C0.67 5.36 0.34 2.72 0 0 Z " fill="#47464B" transform="translate(333,54)"/>
<path d="M0 0 C1.65 0.33 3.3 0.66 5 1 C4.67 2.65 4.34 4.3 4 6 C2.35 6.33 0.7 6.66 -1 7 C-0.67 4.69 -0.34 2.38 0 0 Z " fill="#414247" transform="translate(126,376)"/>
<path d="M0 0 C2.97 0.495 2.97 0.495 6 1 C5.67 1.66 5.34 2.32 5 3 C3.33333333 3.33333333 1.66666667 3.66666667 0 4 C-0.33 4.66 -0.66 5.32 -1 6 C-1.66 6 -2.32 6 -3 6 C-3 5.34 -3 4.68 -3 4 C-3.66 3.67 -4.32 3.34 -5 3 C-3.35 2.67 -1.7 2.34 0 2 C0 1.34 0 0.68 0 0 Z " fill="#4F4E54" transform="translate(50,356)"/>
<path d="M0 0 C0.66 0.33 1.32 0.66 2 1 C2.4140625 3.72265625 2.4140625 3.72265625 2.625 7.0625 C2.69976562 8.16722656 2.77453125 9.27195313 2.8515625 10.41015625 C2.90054688 11.26480469 2.94953125 12.11945313 3 13 C-1.22222222 6.66666667 -1.22222222 6.66666667 -0.625 2.1875 C-0.41875 1.465625 -0.2125 0.74375 0 0 Z " fill="#36353A" transform="translate(158,161)"/>
<path d="M0 0 C0 3.39593478 -0.52165948 4.06619881 -2.5 6.6875 C-2.9640625 7.31011719 -3.428125 7.93273437 -3.90625 8.57421875 C-4.2671875 9.04472656 -4.628125 9.51523437 -5 10 C-5.66 8.68 -6.32 7.36 -7 6 C-6.34 5.34 -5.68 4.68 -5 4 C-4.01 4 -3.02 4 -2 4 C-1.34 2.68 -0.68 1.36 0 0 Z " fill="#46454B" transform="translate(144,329)"/>
<path d="M0 0 C0.5534764 2.07553648 1 3.84365964 1 6 C1.66 6 2.32 6 3 6 C2.34 7.32 1.68 8.64 1 10 C-0.5625 8.3125 -0.5625 8.3125 -2 6 C-1.58974359 1.58974359 -1.58974359 1.58974359 0 0 Z " fill="#49484E" transform="translate(158,324)"/>
<path d="M0 0 C0.66 0 1.32 0 2 0 C3.65 3.3 5.3 6.6 7 10 C6.34 10 5.68 10 5 10 C4.34 9.34 3.68 8.68 3 8 C2.34 7.67 1.68 7.34 1 7 C0.38812962 4.61370553 0 2.46459429 0 0 Z " fill="#4D4C51" transform="translate(4,166)"/>
<path d="M0 0 C0.66 1.32 1.32 2.64 2 4 C1.34 4 0.68 4 0 4 C-0.4021875 4.8353125 -0.4021875 4.8353125 -0.8125 5.6875 C-2.10122647 8.19712523 -3.52926478 10.59334236 -5 13 C-5.33 12.34 -5.66 11.68 -6 11 C-4.78515625 8.3984375 -4.78515625 8.3984375 -3.0625 5.375 C-2.21365234 3.87066406 -2.21365234 3.87066406 -1.34765625 2.3359375 C-0.90292969 1.56507813 -0.45820313 0.79421875 0 0 Z " fill="#4C4B50" transform="translate(318,149)"/>
<path d="M0 0 C2.39073445 3.82517513 2.55966552 7.59665524 3 12 C0.27042661 9.64264116 -0.88893396 7.41866474 -2 4 C-2 3.01 -2 2.02 -2 1 C-1.34 0.67 -0.68 0.34 0 0 Z " fill="#2F2E34" transform="translate(408,293)"/>
<path d="M0 0 C-0.598125 0.268125 -1.19625 0.53625 -1.8125 0.8125 C-4.05569277 1.86047309 -4.05569277 1.86047309 -5.4375 3.6875 C-5.953125 4.120625 -6.46875 4.55375 -7 5 C-9.6875 4.6875 -9.6875 4.6875 -12 4 C-9.94577945 1.94577945 -8.66990976 1.31862408 -6 0.3125 C-5.29875 0.04050781 -4.5975 -0.23148437 -3.875 -0.51171875 C-2 -1 -2 -1 0 0 Z " fill="#3C3D41" transform="translate(232,265)"/>
<path d="M0 0 C-0.99 0.495 -0.99 0.495 -2 1 C-3.04808041 2.97522846 -4.0520411 4.97481509 -5 7 C-5.66 6.67 -6.32 6.34 -7 6 C-7 5.01 -7 4.02 -7 3 C-6.34 3 -5.68 3 -5 3 C-5.33 2.01 -5.66 1.02 -6 0 C-3.50907189 -1.24546405 -2.58919267 -0.7767578 0 0 Z " fill="#7C7B80" transform="translate(350,185)"/>
<path d="M0 0 C1.8871875 0.0309375 1.8871875 0.0309375 3.8125 0.0625 C2.1625 1.3825 0.5125 2.7025 -1.1875 4.0625 C-1.1875 3.4025 -1.1875 2.7425 -1.1875 2.0625 C-4.1575 2.7225 -7.1275 3.3825 -10.1875 4.0625 C-6.68766122 0.56266122 -4.74438704 -0.07777684 0 0 Z " fill="#4F4E54" transform="translate(202.1875,185.9375)"/>
<path d="M0 0 C0.33 1.32 0.66 2.64 1 4 C-0.98 4.33 -2.96 4.66 -5 5 C-5.33 4.01 -5.66 3.02 -6 2 C-2.25 0 -2.25 0 0 0 Z " fill="#4D4C51" transform="translate(388,162)"/>
<path d="M0 0 C1.32 0.66 2.64 1.32 4 2 C3.360625 2.12375 2.72125 2.2475 2.0625 2.375 C1.381875 2.58125 0.70125 2.7875 0 3 C-0.33 3.66 -0.66 4.32 -1 5 C-1.66 5 -2.32 5 -3 5 C-3.33 5.66 -3.66 6.32 -4 7 C-4 6.34 -4 5.68 -4 5 C-4.66 4.67 -5.32 4.34 -6 4 C-4.02 2.68 -2.04 1.36 0 0 Z " fill="#343338" transform="translate(276,210)"/>
<path d="M0 0 C0.66 1.32 1.32 2.64 2 4 C1.360625 4.268125 0.72125 4.53625 0.0625 4.8125 C-2.33131686 5.88667752 -2.33131686 5.88667752 -3 9 C-3.66 8.67 -4.32 8.34 -5 8 C-3.25 4.125 -3.25 4.125 -1 3 C-0.67 2.01 -0.34 1.02 0 0 Z " fill="#343338" transform="translate(284,193)"/>
<path d="M0 0 C1.98 0.495 1.98 0.495 4 1 C4.33 2.65 4.66 4.3 5 6 C3.35 5.67 1.7 5.34 0 5 C-0.33 4.01 -0.66 3.02 -1 2 C-0.67 1.34 -0.34 0.68 0 0 Z " fill="#45464A" transform="translate(17,185)"/>
<path d="M0 0 C2.35953094 2.35953094 2.49141413 3.77895617 3 7 C0.69 6.34 -1.62 5.68 -4 5 C-3.67 4.01 -3.34 3.02 -3 2 C-2.01 2.33 -1.02 2.66 0 3 C0 2.01 0 1.02 0 0 Z " fill="#3D3E43" transform="translate(449,409)"/>
<path d="M0 0 C1.98 0.66 3.96 1.32 6 2 C3 4 3 4 -0.1875 3.625 C-1.115625 3.41875 -2.04375 3.2125 -3 3 C-2.01 2.01 -1.02 1.02 0 0 Z " fill="#302F35" transform="translate(67,350)"/>
<path d="M0 0 C1.33332095 2.6666419 0.67102033 4.16680303 0 7 C-0.99 6.67 -1.98 6.34 -3 6 C-3 5.34 -3 4.68 -3 4 C-3.66 4 -4.32 4 -5 4 C-5 3.34 -5 2.68 -5 2 C-3.35 1.34 -1.7 0.68 0 0 Z " fill="#7D7E82" transform="translate(219,240)"/>
<path d="M0 0 C-2.85306797 2.32472205 -5.54074837 3.7508258 -9 5 C-9 4.01 -9 3.02 -9 2 C-3.375 -1.125 -3.375 -1.125 0 0 Z " fill="#4E4D52" transform="translate(321,193)"/>
<path d="M0 0 C0 0.99 0 1.98 0 3 C-1.96466413 4.06775224 -3.96855359 5.06553465 -6 6 C-6.66 5.67 -7.32 5.34 -8 5 C-5.64722731 2.27573689 -3.37503669 1.1858237 0 0 Z " fill="#343339" transform="translate(333,182)"/>
<path d="M0 0 C0.66 0 1.32 0 2 0 C2 0.99 2 1.98 2 3 C2.66 2.67 3.32 2.34 4 2 C2.25 5.875 2.25 5.875 0 7 C-0.66 6.67 -1.32 6.34 -2 6 C-1.34 4.02 -0.68 2.04 0 0 Z " fill="#49484D" transform="translate(190,33)"/>
<path d="M0 0 C3.74970958 1.24990319 4.76543361 2.79712151 7 6 C7.75 8.3125 7.75 8.3125 8 10 C7.34 10 6.68 10 6 10 C4.4921875 7.8125 4.4921875 7.8125 2.875 5 C2.33617187 4.071875 1.79734375 3.14375 1.2421875 2.1875 C0.83226562 1.465625 0.42234375 0.74375 0 0 Z " fill="#4B4A50" transform="translate(392,312)"/>
<path d="M0 0 C1.485 0.99 1.485 0.99 3 2 C3 2.66 3 3.32 3 4 C4.32 4.66 5.64 5.32 7 6 C5.02 6.99 5.02 6.99 3 8 C0 2.25 0 2.25 0 0 Z " fill="#7E7D82" transform="translate(182,232)"/>
<path d="M0 0 C-0.61875 0.28875 -1.2375 0.5775 -1.875 0.875 C-4.13325765 1.93720042 -4.13325765 1.93720042 -6 4 C-7.32 4 -8.64 4 -10 4 C-9.67 3.01 -9.34 2.02 -9 1 C-3.79245283 -1.26415094 -3.79245283 -1.26415094 0 0 Z " fill="#5C5B60" transform="translate(368,171)"/>
<path d="M0 0 C0.66 0.66 1.32 1.32 2 2 C3.32 2 4.64 2 6 2 C5.34 4.31 4.68 6.62 4 9 C3.67 8.01 3.34 7.02 3 6 C3.33 5.34 3.66 4.68 4 4 C2.68 4 1.36 4 0 4 C0 2.68 0 1.36 0 0 Z " fill="#3F4045" transform="translate(109,423)"/>
<path d="M0 0 C1.98 0.99 1.98 0.99 4 2 C4 4.31 4 6.62 4 9 C3.34 9 2.68 9 2 9 C0.50178941 5.62902617 0 3.79557881 0 0 Z " fill="#47464C" transform="translate(427,352)"/>
<path d="M0 0 C0 0.66 0 1.32 0 2 C-0.66 2 -1.32 2 -2 2 C-2 2.66 -2 3.32 -2 4 C-3.98 4.66 -5.96 5.32 -8 6 C-8 4 -8 4 -6.6875 2.4375 C-4.56310806 0.62783279 -2.79465489 0 0 0 Z " fill="#48474D" transform="translate(465,295)"/>
<path d="M0 0 C0.99 0.33 1.98 0.66 3 1 C1.35 2.98 -0.3 4.96 -2 7 C-2.66 6.67 -3.32 6.34 -4 6 C-3.34 5.34 -2.68 4.68 -2 4 C-2 3.01 -2 2.02 -2 1 C-1.34 0.67 -0.68 0.34 0 0 Z " fill="#4C4D52" transform="translate(203,277)"/>
<path d="M0 0 C0 3.58912412 -0.66436554 4.10857029 -3 6.6875 C-3.556875 7.31011719 -4.11375 7.93273437 -4.6875 8.57421875 C-5.120625 9.04472656 -5.55375 9.51523438 -6 10 C-6.33 9.01 -6.66 8.02 -7 7 C-4.66666667 4.66666667 -2.33333333 2.33333333 0 0 Z " fill="#4F4E53" transform="translate(297,183)"/>
<path d="M0 0 C0.99 0.33 1.98 0.66 3 1 C2.01 2.98 1.02 4.96 0 7 C-0.66 6.67 -1.32 6.34 -2 6 C-1.34 4.02 -0.68 2.04 0 0 Z " fill="#4D4C52" transform="translate(138,359)"/>
<path d="M0 0 C0.66 0.33 1.32 0.66 2 1 C2 1.99 2 2.98 2 4 C-1.33333333 7 -1.33333333 7 -4 7 C-4 5 -4 5 -2 3 C-1.34 2.67 -0.68 2.34 0 2 C0 1.34 0 0.68 0 0 Z " fill="#78777C" transform="translate(149,313)"/>
<path d="M0 0 C0.33 0 0.66 0 1 0 C1 2.64 1 5.28 1 8 C-0.32 8.33 -1.64 8.66 -3 9 C-2.01 6.03 -1.02 3.06 0 0 Z " fill="#56555B" transform="translate(234,208)"/>
<path d="M0 0 C0.66 0.33 1.32 0.66 2 1 C1.01 1.33 0.02 1.66 -1 2 C-1.33 2.99 -1.66 3.98 -2 5 C-3.65 5 -5.3 5 -7 5 C-7 4.34 -7 3.68 -7 3 C-4.69631264 1.93347808 -2.35981813 0.93578995 0 0 Z " fill="#4C4B51" transform="translate(330,186)"/>
<path d="M0 0 C2.125 0.9375 2.125 0.9375 4 2 C1.64561267 3.42944945 0.51967567 4.08661261 -2.25 3.625 C-2.8275 3.41875 -3.405 3.2125 -4 3 C-3.34 3 -2.68 3 -2 3 C-2 2.34 -2 1.68 -2 1 C-1.34 0.67 -0.68 0.34 0 0 Z " fill="#3B3A40" transform="translate(105,370)"/>
<path d="M0 0 C0.33 0.66 0.66 1.32 1 2 C0.06421005 4.35981813 -0.93347808 6.69631264 -2 9 C-2.99 9 -3.98 9 -5 9 C-3.50163895 5.88801935 -1.80066242 2.9465385 0 0 Z " fill="#5A595F" transform="translate(154,331)"/>
<path d="M0 0 C1.15941038 3.47823115 0.70820884 5.45895578 0 9 C-0.99 9 -1.98 9 -3 9 C-3.26218749 5.85375007 -3.24754367 4.38162983 -1.5 1.6875 C-1.005 1.130625 -0.51 0.57375 0 0 Z " fill="#6B6A70" transform="translate(399,278)"/>
<path d="M0 0 C1.32 0.66 2.64 1.32 4 2 C4 2.66 4 3.32 4 4 C3.34 4 2.68 4 2 4 C1.67 4.66 1.34 5.32 1 6 C1 5.34 1 4.68 1 4 C0.34 4 -0.32 4 -1 4 C-0.67 2.68 -0.34 1.36 0 0 Z " fill="#46454B" transform="translate(223,192)"/>
<path d="M0 0 C1 3 1 3 0 6 C-0.66 6 -1.32 6 -2 6 C-2.33 6.66 -2.66 7.32 -3 8 C-3.75 6.25 -3.75 6.25 -4 4 C-2.0625 1.75 -2.0625 1.75 0 0 Z " fill="#343339" transform="translate(241,185)"/>
<path d="M0 0 C1.32 0.33 2.64 0.66 4 1 C4 1.66 4 2.32 4 3 C1.69 3.66 -0.62 4.32 -3 5 C-2.01 3.35 -1.02 1.7 0 0 Z " fill="#48474C" transform="translate(335,181)"/>
<path d="M0 0 C0.33 0 0.66 0 1 0 C1.33 2.64 1.66 5.28 2 8 C1.01 8.33 0.02 8.66 -1 9 C-1.125 2.25 -1.125 2.25 0 0 Z " fill="#4E4D52" transform="translate(142,119)"/>
<path d="M0 0 C0.66 0 1.32 0 2 0 C2.33 1.98 2.66 3.96 3 6 C1.68 6 0.36 6 -1 6 C-0.67 4.02 -0.34 2.04 0 0 Z " fill="#4A494E" transform="translate(249,80)"/>
</svg>
